<svg width="293" height="287" viewBox="0 0 293 287" fill="none" xmlns="http://www.w3.org/2000/svg">
<g filter="url(#filter0_d_393_645)">
<g clip-path="url(#clip0_393_645)">
<rect x="4" y="2" width="285" height="278.294" rx="16" fill="#376599"/>
<path d="M-24.5497 82.5999C-23.0997 82.7208 -20.0547 82.7449 -19.4747 81.8749C-18.7497 80.7874 -18.7497 80.0624 -17.2997 78.9749C-15.8497 77.8874 -15.1247 76.0749 -11.1372 74.9874C-7.14968 73.8999 -7.51218 72.4499 -4.24968 72.8124C-0.987185 73.1749 0.462816 71.3624 1.18782 70.6374C1.91282 69.9124 4.08782 70.9999 5.17532 69.9124C6.26282 68.8249 6.62532 67.0124 9.16282 67.0124C11.7003 67.0124 10.2503 65.5624 12.0628 65.5624C13.8753 65.5624 13.8753 67.0124 16.7753 67.0124C19.6753 67.0124 23.6628 67.3749 24.7503 65.9249C25.8378 64.4749 27.2878 59.0374 32.3628 57.9499C35.4859 57.2807 35.7261 57.2978 35.7024 57.3256C35.739 57.3107 35.8205 57.2807 35.9878 57.2249C37.0753 56.8624 39.6128 52.1499 40.7003 52.1499C41.7878 52.1499 45.7753 51.7874 46.8628 51.4249C47.9503 51.0624 47.9503 49.2499 50.4878 49.2499C53.0253 49.2499 56.6503 39.4624 62.4503 37.2874C68.2503 35.1124 67.8878 31.4874 69.3378 31.1249C70.7878 30.7624 73.3253 27.8624 74.0503 27.8624C74.7753 27.8624 76.5878 26.7749 78.0378 26.7749C79.4878 26.7749 80.5753 28.5874 81.6628 28.5874C82.7503 28.5874 82.3878 31.1249 84.9253 31.1249C87.4628 31.1249 88.1878 29.6749 89.6378 31.1249C91.0878 32.5749 91.8128 35.1124 93.6253 35.1124C95.4378 35.1124 97.6128 36.1999 99.0628 36.1999C100.513 36.1999 104.138 36.9249 104.5 39.0999C104.863 41.2749 105.588 41.2749 106.675 41.2749C107.763 41.2749 111.75 41.2749 112.838 43.0874C113.925 44.8999 115.375 47.7999 117.188 47.7999C119 47.7999 122.263 49.9749 122.263 50.6999C122.263 51.4249 126.25 54.6874 126.975 54.6874C127.7 54.6874 129.875 54.3249 130.6 54.6874C131.325 55.0499 133.5 58.3124 134.588 58.3124C135.675 58.3124 137.488 58.6749 138.213 57.5874C138.938 56.4999 142.2 52.5124 144.013 52.1499C145.825 51.7874 144.738 51.0624 146.188 50.6999C147.638 50.3374 149.813 52.1499 150.9 51.7874C151.988 51.4249 155.613 47.4374 157.425 47.4374C159.238 47.4374 162.5 47.0749 163.225 45.2624C163.95 43.4499 166.488 43.8124 166.85 43.4499C167.213 43.0874 172.288 44.8999 173.375 47.7999C174.463 50.6999 182.075 56.4999 182.8 56.4999C183.525 56.4999 186.063 56.1374 187.15 55.4124C188.238 54.6874 193.313 54.3249 194.4 56.4999C195.488 58.6749 196.938 60.1249 197.3 60.1249C197.663 60.1249 201.288 62.2999 202.738 61.9374C204.188 61.5749 209.625 70.9999 211.438 70.9999C213.25 70.9999 215.788 76.0749 216.513 75.7124C217.238 75.3499 219.775 75.7124 221.588 77.1624C223.4 78.6124 224.85 76.0749 226.3 75.7124C227.75 75.3499 232.1 74.6249 233.188 75.7124C234.275 76.7999 237.175 76.4374 238.263 75.3499C239.35 74.2624 240.8 73.5374 242.613 73.5374C244.425 73.5374 248.775 73.5374 249.863 74.9874C250.95 76.4374 253.488 75.7124 253.85 74.9874C254.213 74.2624 254.938 73.5374 256.025 73.5374C257.113 73.5374 258.563 69.9124 259.288 69.9124C260.013 69.9124 262.913 69.9124 263.638 69.5499C264.363 69.1874 267.263 65.9249 268.713 66.2874C270.163 66.6499 272.338 64.8374 272.338 64.4749C272.338 64.1124 274.875 62.2999 276.325 63.3874C277.775 64.4749 277.413 63.0249 278.5 63.0249C279.588 63.0249 283.938 63.0249 284.663 65.5624C286.596 65.1999 290.68 64.6199 291.55 65.1999C292.638 65.9249 293.363 70.6374 295.175 70.6374C296.988 70.6374 298.438 74.2624 300.975 73.8999C303.513 73.5374 306.05 74.6249 307.863 75.7124C309.675 76.7999 310.4 76.0749 311.488 76.0749C312.575 76.0749 314.025 77.5249 315.113 78.6124C315.983 79.4824 315.475 145.675 315.113 178.662H-24.5497V82.5999Z" fill="#769B7F"/>
<path d="M361.334 153.331C359.534 153.481 355.755 153.511 355.036 152.432C354.136 151.082 354.136 150.182 352.336 148.833C350.537 147.483 349.637 145.234 344.688 143.884C339.74 142.534 340.189 140.735 336.141 141.185C332.092 141.635 330.292 139.385 329.392 138.485C328.493 137.586 325.793 138.935 324.444 137.586C323.094 136.236 322.644 133.987 319.495 133.987C316.346 133.987 318.145 132.187 315.896 132.187C313.647 132.187 313.647 133.987 310.047 133.987C306.448 133.987 301.5 134.436 300.15 132.637C298.8 130.837 297.001 124.089 290.703 122.74C286.827 121.909 286.529 121.93 286.558 121.965C286.513 121.946 286.411 121.909 286.204 121.84C284.854 121.39 281.705 115.541 280.355 115.541C279.006 115.541 274.057 115.092 272.707 114.642C271.358 114.192 271.358 111.942 268.209 111.942C265.059 111.942 260.561 99.7956 253.363 97.0963C246.164 94.3971 246.614 89.8983 244.815 89.4484C243.015 88.9985 239.866 85.3994 238.966 85.3994C238.067 85.3994 235.817 84.0498 234.018 84.0498C232.218 84.0498 230.868 86.2992 229.519 86.2992C228.169 86.2992 228.619 89.4484 225.47 89.4484C222.321 89.4484 221.421 87.6488 219.621 89.4484C217.822 91.2479 216.922 94.3971 214.673 94.3971C212.423 94.3971 209.724 95.7467 207.925 95.7467C206.125 95.7467 201.626 96.6465 201.176 99.3457C200.726 102.045 199.827 102.045 198.477 102.045C197.127 102.045 192.179 102.045 190.829 104.294C189.479 106.544 187.68 110.143 185.431 110.143C183.181 110.143 179.132 112.842 179.132 113.742C179.132 114.642 174.184 118.691 173.284 118.691C172.384 118.691 169.685 118.241 168.785 118.691C167.885 119.14 165.186 123.189 163.836 123.189C162.487 123.189 160.237 123.639 159.337 122.29C158.438 120.94 154.389 115.991 152.139 115.541C149.89 115.092 151.24 114.192 149.44 113.742C147.641 113.292 144.941 115.541 143.592 115.092C142.242 114.642 137.743 109.693 135.494 109.693C133.244 109.693 129.195 109.243 128.296 106.994C127.396 104.744 124.247 105.194 123.797 104.744C123.347 104.294 117.049 106.544 115.699 110.143C114.349 113.742 104.902 120.94 104.002 120.94C103.102 120.94 99.9532 120.49 98.6035 119.59C97.2539 118.691 90.9556 118.241 89.606 120.94C88.2563 123.639 86.4568 125.439 86.0069 125.439C85.557 125.439 81.0582 128.138 79.2587 127.688C77.4592 127.238 70.711 138.935 68.4615 138.935C66.2122 138.935 63.063 145.234 62.1632 144.784C61.2635 144.334 58.1143 144.784 55.8649 146.583C53.6155 148.383 51.816 145.234 50.0164 144.784C48.2169 144.334 42.8184 143.434 41.4687 144.784C40.1191 146.133 36.52 145.683 35.1704 144.334C33.8207 142.984 32.0212 142.084 29.7718 142.084C27.5224 142.084 22.1238 142.084 20.7742 143.884C19.4246 145.683 16.2754 144.784 15.8255 143.884C15.3756 142.984 14.4759 142.084 13.1262 142.084C11.7766 142.084 9.97708 137.586 9.0773 137.586C8.17755 137.586 4.57849 137.586 3.67874 137.136C2.77899 136.686 -0.820068 132.637 -2.6196 133.087C-4.41913 133.537 -7.11841 131.287 -7.11841 130.837C-7.11841 130.388 -10.2675 128.138 -12.0671 129.488C-13.8666 130.837 -13.4167 129.038 -14.7664 129.038C-16.116 129.038 -21.5146 129.038 -22.4143 132.187C-24.8137 131.737 -29.8824 131.017 -30.9621 131.737C-32.3117 132.637 -33.2115 138.485 -35.4609 138.485C-37.7103 138.485 -39.5098 142.984 -42.659 142.534C-45.8081 142.084 -48.9573 143.434 -51.2067 144.784C-53.4561 146.133 -54.3559 145.234 -55.7055 145.234C-57.0551 145.234 -58.8547 147.033 -60.2043 148.383C-61.284 149.462 -60.6542 231.611 -60.2043 272.55H361.334V153.331Z" fill="#324021"/>
<path d="M-142 207.98C-139.854 208.159 -135.349 208.194 -134.49 206.907C-133.418 205.298 -133.418 204.225 -131.272 202.616C-129.126 201.007 -128.054 198.325 -122.153 196.716C-116.253 195.106 -116.789 192.961 -111.962 193.497C-107.134 194.034 -104.989 191.351 -103.916 190.279C-102.843 189.206 -99.6247 190.815 -98.0155 189.206C-96.4063 187.597 -95.8699 184.915 -92.1152 184.915C-88.3604 184.915 -90.506 182.769 -87.824 182.769C-85.142 182.769 -85.142 184.915 -80.8508 184.915C-76.5597 184.915 -70.6593 185.451 -69.0501 183.306C-67.4409 181.16 -65.2953 173.114 -57.7858 171.505C-53.1646 170.515 -52.8091 170.54 -52.8442 170.581C-52.79 170.559 -52.6694 170.515 -52.4218 170.432C-50.8126 169.896 -47.0579 162.922 -45.4487 162.922C-43.8395 162.922 -37.9391 162.386 -36.3299 161.85C-34.7208 161.313 -34.7208 158.631 -30.966 158.631C-27.2112 158.631 -21.8473 144.149 -13.2649 140.93C-4.68257 137.712 -5.21896 132.348 -3.07338 131.812C-0.927795 131.275 2.82698 126.984 3.89977 126.984C4.97256 126.984 7.65454 125.375 9.80013 125.375C11.9457 125.375 13.5549 128.057 15.1641 128.057C16.7733 128.057 16.2369 131.812 19.9917 131.812C23.7464 131.812 24.8192 129.666 26.9648 131.812C29.1104 133.957 30.1832 137.712 32.8652 137.712C35.5471 137.712 38.7655 139.321 40.9111 139.321C43.0567 139.321 48.4207 140.394 48.957 143.612C49.4934 146.831 50.5662 146.831 52.1754 146.831C53.7846 146.831 59.685 146.831 61.2942 149.513C62.9034 152.195 65.0489 156.486 67.7309 156.486C70.4129 156.486 75.2405 159.704 75.2405 160.777C75.2405 161.85 81.1408 166.677 82.2136 166.677C83.2864 166.677 86.5048 166.141 87.5776 166.677C88.6504 167.214 91.8687 172.041 93.4779 172.041C95.0871 172.041 97.7691 172.578 98.8419 170.968C99.9147 169.359 104.742 163.459 107.424 162.922C110.106 162.386 108.497 161.313 110.643 160.777C112.788 160.241 116.007 162.922 117.616 162.386C119.225 161.85 124.589 155.949 127.271 155.949C129.953 155.949 134.78 155.413 135.853 152.731C136.926 150.049 140.681 150.585 141.217 150.049C141.754 149.513 149.263 152.195 150.872 156.486C152.482 160.777 163.746 169.359 164.819 169.359C165.891 169.359 169.646 168.823 171.255 167.75C172.865 166.677 180.374 166.141 181.983 169.359C183.592 172.578 185.738 174.723 186.274 174.723C186.811 174.723 192.175 177.942 194.32 177.405C196.466 176.869 204.512 190.815 207.194 190.815C209.876 190.815 213.631 198.325 214.703 197.788C215.776 197.252 219.531 197.788 222.213 199.934C224.895 202.079 227.041 198.325 229.186 197.788C231.332 197.252 237.769 196.179 239.378 197.788C240.987 199.397 245.278 198.861 246.887 197.252C248.496 195.643 250.642 194.57 253.324 194.57C256.006 194.57 262.443 194.57 264.052 196.715C265.661 198.861 269.416 197.788 269.952 196.715C270.489 195.643 271.561 194.57 273.171 194.57C274.78 194.57 276.925 189.206 277.998 189.206C279.071 189.206 283.362 189.206 284.435 188.67C285.508 188.133 289.799 183.306 291.945 183.842C294.09 184.378 297.309 181.696 297.309 181.16C297.309 180.624 301.063 177.942 303.209 179.551C305.354 181.16 304.818 179.014 306.427 179.014C308.036 179.014 314.473 179.014 315.546 182.769C318.407 182.233 324.45 181.375 325.737 182.233C327.347 183.306 328.419 190.279 331.101 190.279C333.783 190.279 335.929 195.643 339.684 195.106C343.439 194.57 347.193 196.179 349.875 197.788C352.557 199.397 353.63 198.325 355.239 198.325C356.848 198.325 358.994 200.47 360.603 202.079C361.891 203.367 361.14 301.313 360.603 350.125H-142V207.98Z" fill="#218426"/>
<path d="M121.368 256.254C120.999 255.886 121.214 253.797 121.368 252.799C123.441 249.805 108.929 247.271 108.008 250.726C107.087 254.181 102.019 258.558 97.4121 260.861C92.8052 263.165 91.1928 266.62 91.8838 268.923C92.5748 271.227 95.339 271.687 96.03 272.148C96.721 272.609 113.766 273.53 119.295 272.148C124.823 270.766 126.205 266.62 126.205 264.547C126.205 262.473 121.829 256.715 121.368 256.254Z" fill="#F67D00"/>
<path d="M172.582 256.254C172.95 255.886 172.735 253.797 172.582 252.799C170.508 249.805 185.02 247.271 185.942 250.726C186.863 254.181 191.931 258.558 196.538 260.861C201.144 263.165 202.757 266.62 202.066 268.923C201.375 271.227 198.611 271.687 197.92 272.148C197.229 272.609 180.183 273.53 174.655 272.148C169.127 270.766 167.745 266.62 167.745 264.547C167.745 262.473 172.121 256.715 172.582 256.254Z" fill="#F67D00"/>
<path d="M119.833 254.359C96.6142 249.752 88.9668 228.638 88.0454 218.656H205.751C202.075 246.457 181.21 252.715 178.819 253.433L178.801 253.438C176.497 254.129 148.856 260.118 119.833 254.359Z" fill="#F7CA45"/>
<g clip-path="url(#clip1_393_645)">
<path d="M203.44 120.76C205.743 154.851 178.785 160.379 147.236 160.379C115.686 160.379 88.0373 155.312 91.0318 120.76C93.6669 90.3547 115.686 74.0002 147.236 74.0002C178.785 74.0002 201.556 92.8884 203.44 120.76Z" fill="#F7CA45"/>
<path d="M138.721 146.559C127.111 145.269 119.142 139.111 116.608 136.194L178.34 135.733C173.272 143.795 153.232 148.171 138.721 146.559Z" fill="#9F6206"/>
<path d="M147.243 142.897C130.29 143.45 118.834 137.753 115.225 134.835C115.225 134.144 125.13 121.705 147.243 121.014C169.356 120.323 179.031 134.835 178.34 135.526C177.649 136.217 168.435 142.206 147.243 142.897Z" fill="#F67D00"/>
<ellipse cx="163.23" cy="128.721" rx="2.76413" ry="1.84275" transform="rotate(36.3995 163.23 128.721)" fill="#2C2728"/>
<ellipse cx="2.76413" cy="1.84275" rx="2.76413" ry="1.84275" transform="matrix(-0.804899 0.593412 0.593412 0.804899 131.653 125.598)" fill="#2C2728"/>
<ellipse cx="186.863" cy="114.653" rx="10.7063" ry="14.2331" transform="rotate(-15.1343 186.863 114.653)" fill="#292826"/>
<ellipse cx="10.7063" cy="14.2331" rx="10.7063" ry="14.2331" transform="matrix(-0.965317 -0.261082 -0.261082 0.965317 121.215 103.547)" fill="#292826"/>
<circle cx="108.5" cy="107.5" r="2.5" fill="#D9D9D9"/>
<ellipse cx="181" cy="107.5" rx="2" ry="2.5" fill="#D9D9D9"/>
</g>
<path d="M107.394 153.699L104.169 156.694C106.703 164.295 127.729 163.604 150.929 163.604C168.435 163.604 181.411 159.688 187.323 156.233L185.941 153.699H107.394Z" fill="#F7CA45"/>
<path d="M187.606 155.542C188.988 156.387 191.752 158.168 191.752 158.537C191.752 158.997 202.348 164.986 204.651 170.054C206.954 175.121 217.32 194.701 217.781 194.931C218.241 195.161 218.472 196.543 219.393 197.004C220.314 197.465 222.618 197.926 222.618 199.768C222.618 201.611 220.314 207.139 218.702 208.752C217.09 210.364 213.634 212.898 210.64 211.285C207.645 209.673 209.258 207.83 208.797 206.909C208.503 206.321 207.927 205.639 207.31 204.683C206.974 205.221 206.954 206.448 206.954 207.6C206.954 208.752 208.336 212.898 208.106 214.741C207.876 216.583 206.263 218.426 200.044 222.572C193.824 226.718 169.178 228.792 167.335 229.022C165.492 229.252 136.699 229.943 115.508 227.87C94.316 225.797 89.7091 220.269 87.1754 217.965C84.6416 215.662 85.1023 210.825 86.0236 209.673C86.7607 208.752 86.6108 206.064 86.4437 204.836C86.2428 205.279 86.0976 205.527 86.0236 205.527C85.3326 205.527 84.6416 206.909 84.4112 208.291C84.1809 209.673 81.1864 213.128 77.2706 211.285C73.3547 209.443 71.5122 202.763 71.0515 200.459C70.5908 198.156 73.3549 197.465 74.046 197.234C74.737 197.004 75.428 196.083 75.6584 194.931C75.8887 193.779 80.7259 186.178 84.6418 177.195C88.5576 168.211 99.8445 159.458 100.536 158.997C101.088 158.629 103.837 156.54 105.142 155.542C105.833 158.767 123.109 161.07 149.368 161.762C170.376 162.314 183.613 157.846 187.606 155.542Z" fill="#ED56D1"/>
<path d="M77.9822 211.055C77.2451 211.055 74.1431 207.216 72.6843 205.296C72.3004 205.68 71.4404 206.909 71.0719 208.752C70.6112 211.055 72.4539 214.049 74.0663 214.28C75.3563 214.464 77.2144 212.207 77.9822 211.055Z" fill="#F7CA45"/>
<path d="M215.656 211.055C216.393 211.055 219.495 207.216 220.954 205.296C221.338 205.68 222.198 206.909 222.566 208.752C223.027 211.055 221.184 214.049 219.572 214.28C218.282 214.464 216.424 212.207 215.656 211.055Z" fill="#F7CA45"/>
<rect x="100.15" y="21.7002" width="1.45" height="1.45" fill="white"/>
<rect x="229.925" y="65.2" width="1.45" height="1.45" fill="white"/>
<rect x="282.85" y="21.7002" width="1.45" height="1.45" fill="white"/>
<rect x="214.7" y="1.39966" width="1.45" height="1.45" fill="white"/>
</g>
</g>
<defs>
<filter id="filter0_d_393_645" x="0" y="0" width="293" height="286.294" filterUnits="userSpaceOnUse" color-interpolation-filters="sRGB">
<feFlood flood-opacity="0" result="BackgroundImageFix"/>
<feColorMatrix in="SourceAlpha" type="matrix" values="0 0 0 0 0 0 0 0 0 0 0 0 0 0 0 0 0 0 127 0" result="hardAlpha"/>
<feOffset dy="2"/>
<feGaussianBlur stdDeviation="2"/>
<feComposite in2="hardAlpha" operator="out"/>
<feColorMatrix type="matrix" values="0 0 0 0 0 0 0 0 0 0 0 0 0 0 0 0 0 0 0.25 0"/>
<feBlend mode="normal" in2="BackgroundImageFix" result="effect1_dropShadow_393_645"/>
<feBlend mode="normal" in="SourceGraphic" in2="effect1_dropShadow_393_645" result="shape"/>
</filter>
<clipPath id="clip0_393_645">
<rect x="4" y="2" width="285" height="278.294" rx="16" fill="white"/>
</clipPath>
<clipPath id="clip1_393_645">
<rect width="112.768" height="86.379" fill="white" transform="translate(90.8091 74.0002)"/>
</clipPath>
</defs>
</svg>
