<svg width="293" height="287" viewBox="0 0 293 287" fill="none" xmlns="http://www.w3.org/2000/svg">
<g filter="url(#filter0_d_393_472)">
<g clip-path="url(#clip0_393_472)">
<rect x="-3.62573" y="-278" width="313.756" height="489.137" fill="url(#paint0_linear_393_472)"/>
<path d="M287.128 175.588L291.242 200.83H262.95L268.019 175.588H287.128Z" fill="#262626"/>
<path opacity="0.2" d="M287.128 175.588L291.242 200.83H262.95L268.019 175.588H287.128Z" fill="white"/>
<path d="M277.816 175.668C277.801 175.668 277.786 175.667 277.772 175.665C277.702 175.653 277.639 175.615 277.598 175.559C277.557 175.502 277.54 175.432 277.551 175.364L285.343 129.457C285.356 129.39 285.395 129.33 285.453 129.291C285.51 129.252 285.581 129.237 285.65 129.248C285.719 129.259 285.781 129.296 285.822 129.351C285.863 129.406 285.881 129.475 285.871 129.542L278.08 175.449C278.069 175.51 278.037 175.566 277.989 175.606C277.941 175.646 277.879 175.668 277.816 175.668Z" fill="#494949"/>
<path d="M279.652 165.264C279.591 165.264 279.531 165.243 279.483 165.205C279.436 165.168 279.403 165.115 279.39 165.056C279.377 164.997 279.386 164.936 279.414 164.883C279.442 164.829 279.488 164.787 279.545 164.763L298.568 156.641C298.633 156.616 298.705 156.616 298.769 156.642C298.834 156.668 298.885 156.717 298.913 156.779C298.941 156.842 298.943 156.912 298.919 156.976C298.894 157.039 298.846 157.091 298.783 157.12L279.759 165.242C279.725 165.256 279.689 165.264 279.652 165.264Z" fill="#494949"/>
<path d="M280.595 157.403C280.559 157.395 280.525 157.381 280.495 157.36L267.663 148.408C267.632 148.389 267.606 148.364 267.586 148.335C267.566 148.306 267.552 148.273 267.545 148.238C267.538 148.203 267.539 148.168 267.546 148.133C267.554 148.099 267.569 148.066 267.59 148.037C267.611 148.008 267.637 147.984 267.668 147.966C267.699 147.947 267.733 147.935 267.769 147.93C267.805 147.925 267.841 147.927 267.876 147.936C267.911 147.945 267.944 147.961 267.973 147.982L280.805 156.934C280.855 156.969 280.891 157.02 280.907 157.078C280.923 157.136 280.919 157.197 280.894 157.252C280.869 157.307 280.826 157.352 280.771 157.379C280.716 157.407 280.654 157.415 280.593 157.402L280.595 157.403Z" fill="#494949"/>
<path d="M304.1 171.224C309.66 168.532 311.577 161.249 308.383 154.959C305.188 148.668 298.091 145.75 292.532 148.442C286.972 151.134 285.054 158.416 288.249 164.707C291.444 170.998 298.54 173.916 304.1 171.224Z" fill="#0CBC8B"/>
<path opacity="0.5" d="M305.495 169.404C299.936 172.096 292.838 169.178 289.643 162.887C287.477 158.62 287.661 153.9 289.741 150.461C290.54 149.63 291.485 148.945 292.532 148.439C298.092 145.747 305.189 148.664 308.383 154.955C310.551 159.222 310.367 163.945 308.286 167.381C307.487 168.213 306.541 168.898 305.495 169.404Z" fill="white"/>
<path d="M296.709 134.434C299.015 128.853 296.035 122.417 290.053 120.06C284.07 117.702 277.35 120.316 275.043 125.897C272.737 131.479 275.717 137.914 281.7 140.272C287.682 142.629 294.402 140.016 296.709 134.434Z" fill="#0CBC8B"/>
<path opacity="0.5" d="M296.707 134.432C296.62 134.643 296.527 134.848 296.425 135.051C293.471 139.119 287.77 140.777 282.617 138.746C276.634 136.388 273.654 129.952 275.96 124.371C276.047 124.16 276.141 123.954 276.242 123.752C279.197 119.684 284.897 118.025 290.051 120.057C296.034 122.414 299.014 128.85 296.707 134.432Z" fill="white"/>
<path d="M274.135 152.022C277.14 146.608 275.698 140.167 270.913 137.634C266.129 135.102 259.814 137.438 256.809 142.851C253.804 148.265 255.246 154.706 260.031 157.239C264.815 159.771 271.13 157.436 274.135 152.022Z" fill="#0CBC8B"/>
<path opacity="0.5" d="M258.869 155.603C263.653 158.136 269.968 155.799 272.973 150.386C275.011 146.715 275.003 142.571 273.294 139.493C272.621 138.739 271.814 138.11 270.914 137.634C266.13 135.101 259.815 137.437 256.81 142.851C254.77 146.524 254.778 150.668 256.489 153.744C257.162 154.497 257.968 155.127 258.869 155.603Z" fill="white"/>
<path d="M302.726 -80.5176H169.136V49.9299H302.726V-80.5176Z" fill="#B5E1E3"/>
<path opacity="0.05" d="M270.363 9.37163V-24.7576H241.732V-4.92932H197.384V30.1795H178.535V49.9301H197.384H201.015H296.3V9.37163H270.363Z" fill="black"/>
<path opacity="0.34" d="M292.603 12.9685H288.76V16.6741H292.603V12.9685Z" fill="#FFFFFA"/>
<path opacity="0.34" d="M292.603 20.6475H288.76V24.353H292.603V20.6475Z" fill="#FFFFFA"/>
<path opacity="0.34" d="M292.603 28.3262H288.76V32.0318H292.603V28.3262Z" fill="#FFFFFA"/>
<path opacity="0.34" d="M285.494 12.9685H281.651V16.6741H285.494V12.9685Z" fill="#FFFFFA"/>
<path opacity="0.34" d="M285.494 20.6475H281.651V24.353H285.494V20.6475Z" fill="#FFFFFA"/>
<path opacity="0.34" d="M285.494 28.3262H281.651V32.0318H285.494V28.3262Z" fill="#FFFFFA"/>
<path opacity="0.34" d="M278.577 12.9683H274.734V16.6738H278.577V12.9683Z" fill="#FFFFFA"/>
<path opacity="0.34" d="M278.577 20.6475H274.734V24.353H278.577V20.6475Z" fill="#FFFFFA"/>
<path opacity="0.34" d="M278.577 28.3262H274.734V32.0318H278.577V28.3262Z" fill="#FFFFFA"/>
<path d="M302.726 -16.0256H275.846V-80.5176H273.623V-16.0256H201.015V-80.5176H198.792V-16.0256H169.136V-13.8549H198.792V49.9299H201.015V-13.8549H273.623V49.9299H275.846V-13.8549H302.726V-16.0256Z" fill="white"/>
<path d="M308.048 49.7725H163.814V54.1105H308.048V49.7725Z" fill="#F4F4F4"/>
<path opacity="0.1" d="M308.048 49.7725H163.814V54.1105H308.048V49.7725Z" fill="black"/>
<path d="M304.464 201.346H2.03993C2.00622 201.348 1.97262 201.342 1.94114 201.33C1.90966 201.318 1.88094 201.3 1.85669 201.278C1.83244 201.255 1.81316 201.227 1.79999 201.197C1.78682 201.167 1.78003 201.134 1.78003 201.101C1.78003 201.068 1.78682 201.035 1.79999 201.005C1.81316 200.975 1.83244 200.947 1.85669 200.924C1.88094 200.902 1.90966 200.884 1.94114 200.872C1.97262 200.86 2.00622 200.855 2.03993 200.856H304.464C304.498 200.855 304.531 200.86 304.563 200.872C304.594 200.884 304.623 200.902 304.647 200.924C304.671 200.947 304.691 200.975 304.704 201.005C304.717 201.035 304.724 201.068 304.724 201.101C304.724 201.134 304.717 201.167 304.704 201.197C304.691 201.227 304.671 201.255 304.647 201.278C304.623 201.3 304.594 201.318 304.563 201.33C304.531 201.342 304.498 201.348 304.464 201.346Z" fill="#292A2E"/>
<g opacity="0.65">
<path d="M304.464 201.346H2.03993C2.00622 201.348 1.97262 201.342 1.94114 201.33C1.90966 201.318 1.88094 201.3 1.85669 201.278C1.83244 201.255 1.81316 201.227 1.79999 201.197C1.78682 201.167 1.78003 201.134 1.78003 201.101C1.78003 201.068 1.78682 201.035 1.79999 201.005C1.81316 200.975 1.83244 200.947 1.85669 200.924C1.88094 200.902 1.90966 200.884 1.94114 200.872C1.97262 200.86 2.00622 200.855 2.03993 200.856H304.464C304.498 200.855 304.531 200.86 304.563 200.872C304.594 200.884 304.623 200.902 304.647 200.924C304.671 200.947 304.691 200.975 304.704 201.005C304.717 201.035 304.724 201.068 304.724 201.101C304.724 201.134 304.717 201.167 304.704 201.197C304.691 201.227 304.671 201.255 304.647 201.278C304.623 201.3 304.594 201.318 304.563 201.33C304.531 201.342 304.498 201.348 304.464 201.346Z" fill="#292A2E"/>
</g>
<rect x="-3.62573" y="200.506" width="313.756" height="195.494" fill="#D5AF76"/>
<path d="M46.9974 93.691V162.531C90.2146 163.1 176.649 162.668 176.649 156.382C176.649 148.524 190.827 113.335 200.051 99.6697C207.431 88.7373 198.343 83.6127 192.877 82.417H58.1006C51.2678 82.417 47.8515 89.933 46.9974 93.691Z" fill="#DC994F"/>
<circle cx="103.539" cy="122.559" r="4.27047" fill="#CB843C"/>
<circle cx="146.244" cy="122.559" r="4.27047" fill="#CB843C"/>
<path d="M200.051 99.6697C207.431 88.7373 198.343 83.6127 192.877 82.417H137.057C163.295 143.775 87.9498 158.204 46.9974 156.382V162.531C90.2146 163.1 176.649 162.668 176.649 156.382C176.649 148.524 190.827 113.335 200.051 99.6697Z" fill="#CB843C"/>
<path d="M47.0359 93.691V162.531C3.8187 163.1 -82.6157 162.668 -82.6157 156.382C-82.6157 148.524 -96.7936 113.335 -106.018 99.6697C-113.397 88.7373 -104.31 83.6127 -98.8435 82.417H35.9327C42.7654 82.417 46.1818 89.933 47.0359 93.691Z" fill="#DC994F"/>
<path d="M47.0359 93.691V162.531C3.8187 163.1 -82.6157 162.668 -82.6157 156.382C-27.8397 167.257 70.2331 167.69 24.317 82.417H35.9327C42.7654 82.417 46.1818 89.933 47.0359 93.691Z" fill="#CB843C"/>
<path d="M205.032 195.316L209.788 230.505C209.898 231.325 209.261 232.055 208.433 232.055H204.548C204.017 232.055 203.533 231.746 203.309 231.265L192.6 208.247C192.375 207.765 191.892 207.457 191.361 207.457H-97.4651C-97.9938 207.457 -98.4751 207.762 -98.7008 208.24L-109.577 231.272C-109.803 231.75 -110.284 232.055 -110.813 232.055H-114.519C-115.351 232.055 -115.99 231.317 -115.871 230.493L-110.799 195.304C-110.702 194.632 -110.126 194.133 -109.446 194.133H203.678C204.362 194.133 204.941 194.639 205.032 195.316Z" fill="#89563D"/>
<path d="M199.748 98.8159C224.209 109.748 233.855 117.378 235.62 119.827C212.901 119.827 212.218 203.186 201.115 202.845C190.011 202.503 169.684 188.837 175.833 155.528C180.753 128.88 193.826 106.617 199.748 98.8159Z" fill="#D29049"/>
<path d="M201.743 203.199H212.163C213.814 202.972 217.25 201.51 218.142 197.562C220.927 185.235 225.191 164.011 230.099 146.823C234.028 125.977 243.594 116.934 226.341 116.934C206.637 116.935 195.594 192.267 195.594 197.562C195.594 201.799 199.693 203.086 201.743 203.199Z" fill="#E8A660"/>
<rect width="297.225" height="26.6478" rx="5.80784" transform="matrix(-1 0 0 1 195.648 176.709)" fill="#D08C47"/>
<path d="M47.0359 160.188V167.139C47.0359 167.895 46.4221 168.508 45.6661 168.506L-100.259 168.166C-100.993 168.164 -101.601 167.583 -101.584 166.85C-101.518 164.024 -100.821 162.301 -99.5267 161.847L-83.9664 156.956C-83.8338 156.915 -83.6957 156.894 -83.5567 156.894H44.1254C46.1799 157.032 46.9218 159.147 47.0359 160.188Z" fill="#E8A660"/>
<mask id="path-42-inside-1_393_472" fill="white">
<path d="M47.0359 166.801C47.0359 164.159 44.8945 162.018 42.253 162.018H-96.7936C-99.4352 162.018 -101.577 164.159 -101.577 166.801V177.392C-101.577 180.033 -99.4352 182.175 -96.7936 182.175H42.253C44.8945 182.175 47.0359 180.033 47.0359 177.392V166.801Z"/>
</mask>
<path d="M47.0359 166.801C47.0359 164.159 44.8945 162.018 42.253 162.018H-96.7936C-99.4352 162.018 -101.577 164.159 -101.577 166.801V177.392C-101.577 180.033 -99.4352 182.175 -96.7936 182.175H42.253C44.8945 182.175 47.0359 180.033 47.0359 177.392V166.801Z" fill="#E8A660"/>
<path d="M47.0359 166.801C47.0359 163.971 44.7415 161.676 41.9113 161.676H-96.452C-99.2822 161.676 -101.577 163.971 -101.577 166.801V166.801C-101.577 164.348 -99.4352 162.36 -96.7936 162.36H42.253C44.8945 162.36 47.0359 164.348 47.0359 166.801V166.801ZM-101.577 182.175H47.0359H-101.577ZM47.0359 182.175V162.018V182.175ZM-101.577 162.018V182.175V162.018Z" fill="#FBC58C" mask="url(#path-42-inside-1_393_472)"/>
<path d="M47.0237 160.188V167.139C47.0237 167.895 47.6375 168.508 48.3934 168.506L194.319 168.166C195.052 168.164 195.66 167.583 195.643 166.85C195.577 164.024 194.88 162.301 193.586 161.847L178.026 156.956C177.893 156.915 177.755 156.894 177.616 156.894H49.9342C47.8797 157.032 47.1378 159.147 47.0237 160.188Z" fill="#E8A660"/>
<mask id="path-45-inside-2_393_472" fill="white">
<path d="M47.0237 166.801C47.0237 164.159 49.1651 162.018 51.8066 162.018H190.853C193.495 162.018 195.636 164.159 195.636 166.801V177.392C195.636 180.033 193.495 182.175 190.853 182.175H51.8066C49.1651 182.175 47.0237 180.033 47.0237 177.392V166.801Z"/>
</mask>
<path d="M47.0237 166.801C47.0237 164.159 49.1651 162.018 51.8066 162.018H190.853C193.495 162.018 195.636 164.159 195.636 166.801V177.392C195.636 180.033 193.495 182.175 190.853 182.175H51.8066C49.1651 182.175 47.0237 180.033 47.0237 177.392V166.801Z" fill="#E8A660"/>
<path d="M47.0237 166.801C47.0237 163.971 49.318 161.676 52.1482 161.676H190.512C193.342 161.676 195.636 163.971 195.636 166.801V166.801C195.636 164.348 193.495 162.36 190.853 162.36H51.8066C49.1651 162.36 47.0237 164.348 47.0237 166.801V166.801ZM195.636 182.175H47.0237H195.636ZM47.0237 182.175V162.018V182.175ZM195.636 162.018V182.175V162.018Z" fill="#FBC58C" mask="url(#path-45-inside-2_393_472)"/>
<g filter="url(#filter1_d_393_472)">
<path d="M172.738 89.2527C176.564 92.8057 182.759 128.199 185.379 145.452C186.745 146.135 189.956 148.527 191.87 152.627C193.783 156.726 187.656 156.612 184.354 156.043C182.645 157.239 121.151 158.264 116.539 160.143C112.849 161.646 113.293 155.644 113.976 152.456C111.414 150.064 102.361 108.214 100.482 102.406C98.9784 97.7595 106.916 98.1923 111.072 98.9894C123.713 89.0819 163.343 87.0321 163.514 86.3488C163.685 85.6656 169.492 82.5908 171.713 82.4199C173.49 82.2833 173.137 86.9182 172.738 89.2527Z" fill="#002269"/>
<path d="M179.933 114.872C180.958 118.972 182.759 128.37 185.378 145.623C186.745 146.306 189.956 148.697 191.87 152.797C193.783 156.897 187.656 156.783 184.354 156.213C182.645 157.409 121.151 158.434 116.538 160.313C112.849 161.816 113.293 155.815 113.976 152.626C111.414 150.235 102.36 108.384 100.481 102.576C98.9782 97.9301 106.916 98.3628 111.072 99.16C117.755 93.52 127.15 92.6659 127.321 91.9827C140.593 118.904 168.153 119.029 179.933 114.872Z" fill="#001E5C"/>
<path d="M113.87 152.367C111.308 149.975 102.894 110.773 101.186 104.965C103.634 103.029 108.561 101.597 109.108 111.026C109.791 122.812 120.682 147.245 116.432 160.054C112.743 161.557 113.187 155.556 113.87 152.367Z" fill="#001644"/>
</g>
<ellipse cx="50.6782" cy="294.001" rx="147.626" ry="76.4277" fill="#59BAD9"/>
<ellipse cx="50.7543" cy="294.001" rx="122.763" ry="63.5557" fill="#4388AE"/>
<ellipse cx="50.7541" cy="294.293" rx="93.8007" ry="48.5617" fill="#1E4E87"/>
<path d="M226.232 241.136C226.232 220.71 199.232 217.867 182.732 219.322C179.732 219.537 181.232 228.048 182.732 228.048C184.232 228.048 220.732 229.5 217.232 242.5C213.732 255.5 189.914 252.757 188.232 255C183.732 261 226.232 259.844 226.232 241.136Z" fill="#966A4E"/>
<path d="M210.103 113.276C194.916 106.38 186.373 116.788 184 122.854L185.582 163.08C216.431 173.615 221.968 152.544 223.55 148.713C225.132 144.882 229.087 121.896 210.103 113.276Z" fill="#966A4E"/>
<path d="M97.8965 108.768C113.177 107.069 116.497 122.415 116.778 128.479L107.007 160.029C76.9921 160.404 77.6467 138.983 77.797 136.35C78.0211 132.425 78.7956 110.891 97.8965 108.768Z" fill="#966A4E"/>
<g filter="url(#filter2_i_393_472)">
<path d="M204.826 121.614C194.455 116.724 188.621 124.104 187 128.405L188.08 156.929C209.148 164.4 212.929 149.459 214.01 146.742C215.09 144.026 217.791 127.726 204.826 121.614Z" fill="#E3C795"/>
</g>
<g filter="url(#filter3_i_393_472)">
<path d="M99.2776 115.44C110.71 114.328 109.705 129.565 109.964 133.978L104.71 152.769C82.2291 152.798 82.6724 138.149 82.8844 135.256C83.0993 132.324 84.9866 116.829 99.2776 115.44Z" fill="#E3C795"/>
</g>
<path d="M131.069 253.554H110.549C110.549 248.424 115.679 248.424 114.397 247.142C113.114 245.859 102.854 242.012 101.572 229.187C100.546 218.927 111.404 215.507 116.962 215.08H120.809V239.447C127.991 239.447 130.641 248.852 131.069 253.554Z" fill="#966A4E"/>
<rect x="113.647" y="249.082" width="3.64307" height="3.64307" rx="1.21436" fill="#FDE8D7"/>
<rect x="118.505" y="249.082" width="3.64307" height="3.64307" rx="1.21436" fill="#FDE8D7"/>
<rect x="124.576" y="249.082" width="3.64307" height="3.64307" rx="1.21436" fill="#FDE8D7"/>
<path d="M165.865 253.555H186.385C186.385 248.425 181.255 248.425 182.537 247.142C183.82 245.86 194.08 242.012 195.362 229.187C196.388 218.927 185.53 215.507 179.972 215.08H176.125V239.447C168.943 239.447 166.292 248.852 165.865 253.555Z" fill="#966A4E"/>
<rect width="3.64307" height="3.64307" rx="1.21436" transform="matrix(-1 0 0 1 183.286 249.082)" fill="#FDE8D7"/>
<rect width="3.64307" height="3.64307" rx="1.21436" transform="matrix(-1 0 0 1 178.429 249.082)" fill="#FDE8D7"/>
<rect width="3.64307" height="3.64307" rx="1.21436" transform="matrix(-1 0 0 1 172.358 249.082)" fill="#FDE8D7"/>
<path fill-rule="evenodd" clip-rule="evenodd" d="M124.07 174.385C120.91 194.05 115.944 235.176 121.361 242.358C126.778 249.54 132.647 253.045 134.905 253.9L148.448 253.9H161.991C164.248 253.045 170.117 249.54 175.535 242.358C180.952 235.176 175.986 194.05 172.826 174.386H148.448V174.385H124.07Z" fill="#966A4E"/>
<path fill-rule="evenodd" clip-rule="evenodd" d="M124.07 174.385C120.91 194.05 115.944 235.176 121.361 242.358C126.778 249.54 132.647 253.045 134.905 253.9L148.448 253.9H161.991C164.248 253.045 170.117 249.54 175.535 242.358C180.952 235.176 175.986 194.05 172.826 174.386H148.448V174.385H124.07Z" fill="url(#paint1_linear_393_472)" fill-opacity="0.2"/>
<g filter="url(#filter4_i_393_472)">
<path fill-rule="evenodd" clip-rule="evenodd" d="M126.082 176.95C123.263 195.347 118.833 233.819 123.665 240.537C128.498 247.256 133.733 250.535 135.746 251.335L149.73 251.335H161.811C163.824 250.535 169.059 247.256 173.891 240.537C178.724 233.819 174.294 195.347 171.475 176.95H149.73V176.95H126.082Z" fill="#E3C795"/>
</g>
<g filter="url(#filter5_i_393_472)">
<path d="M116.81 202.755C114.269 192.59 118.928 178.401 121.575 172.577L129.517 174.166C125.811 181.048 121.575 198.784 127.928 201.166C140.635 205.931 148.576 193.225 146.988 197.99C143.772 207.638 119.987 215.461 116.81 202.755Z" fill="#966A4E"/>
</g>
<path d="M127.612 178.042C127.126 178.042 122.148 177.637 119.719 177.434L120.326 175.613L128.219 176.827C128.219 177.232 128.098 178.042 127.612 178.042Z" fill="#966A4E"/>
<g filter="url(#filter6_i_393_472)">
<path d="M176.813 202.755C179.355 192.59 174.696 178.401 172.048 172.577L164.107 174.166C167.813 181.048 172.048 198.784 165.695 201.166C152.989 205.931 145.048 193.225 146.636 197.99C149.852 207.638 173.637 215.461 176.813 202.755Z" fill="#966A4E"/>
</g>
<path d="M165.865 178.042C165.865 178.042 171.329 177.637 173.758 177.434L172.544 175.613L165.257 176.22C165.257 176.625 165.865 178.042 165.865 178.042Z" fill="#966A4E"/>
<path d="M108.134 112.662C109.404 102.619 117.07 94.5741 127.041 92.8216L144.788 89.7024C147.431 89.2377 150.136 89.2377 152.78 89.7024L169.972 92.7241C180.206 94.5229 187.977 102.937 188.958 113.281L192.604 151.736C193.889 165.285 183.233 177 169.622 177H126.187C112.289 177 101.541 164.808 103.285 151.019L108.134 112.662Z" fill="#966A4E"/>
<path d="M112.436 122.646C113.665 112.611 121.281 104.544 131.228 102.738L144.011 100.419C146.736 99.9239 149.529 99.9239 152.255 100.419L164.501 102.641C174.703 104.492 182.419 112.919 183.367 123.244L186.175 153.814C187.417 167.341 176.77 179.011 163.187 179.011H131.618C117.756 179.011 107.02 166.879 108.705 153.12L112.436 122.646Z" fill="#E3C795"/>
<path d="M145 143.714C145 144.661 143.881 146 142.5 146C141.119 146 140 144.661 140 143.714C140 142.768 141.119 142 142.5 142C143.881 142 145 142.768 145 143.714Z" fill="#4E4949"/>
<path d="M156 143.714C156 144.661 154.881 146 153.5 146C152.119 146 151 144.661 151 143.714C151 142.768 152.119 142 153.5 142C154.881 142 156 142.768 156 143.714Z" fill="#4E4949"/>
<path d="M160.5 158C160.5 162.695 152.344 161.648 147.65 161.648C142.955 161.648 135.5 162.695 135.5 158" stroke="#4E4949" stroke-width="1.7001" stroke-linecap="round"/>
<ellipse cx="124.576" cy="144.04" rx="4.85742" ry="3.03589" transform="rotate(-16.1742 124.576 144.04)" fill="#E39D9D"/>
<ellipse cx="4.85742" cy="3.03589" rx="4.85742" ry="3.03589" transform="matrix(-0.960419 -0.278559 -0.278559 0.960419 178.1 142.496)" fill="#E39D9D"/>
<ellipse cx="12.643" cy="12.4685" rx="12.643" ry="12.4685" transform="matrix(0.944218 -0.329321 0.339968 0.940437 112 118.327)" fill="white"/>
<path fill-rule="evenodd" clip-rule="evenodd" d="M132.462 134.958C137.242 133.291 139.741 128.133 138.044 123.438C136.347 118.743 131.096 116.288 126.316 117.956C124.951 118.432 123.772 119.193 122.823 120.146C124.007 120.261 125.075 121.028 125.499 122.202C126.084 123.821 125.222 125.599 123.574 126.174C122.379 126.591 121.099 126.261 120.262 125.431C120.107 126.755 120.25 128.134 120.734 129.475C122.432 134.17 127.683 136.625 132.462 134.958Z" fill="#393939"/>
<ellipse cx="11.6434" cy="11.6579" rx="11.6434" ry="11.6579" transform="matrix(0.942187 -0.335088 0.334137 0.942524 154 119.803)" fill="white"/>
<path fill-rule="evenodd" clip-rule="evenodd" d="M169.843 135.387C174.236 133.825 176.532 128.992 174.972 124.592C173.413 120.193 168.587 117.893 164.195 119.455C162.94 119.901 161.857 120.614 160.985 121.508C162.072 121.615 163.054 122.334 163.444 123.434C163.982 124.951 163.19 126.618 161.675 127.156C160.577 127.547 159.401 127.238 158.632 126.46C158.489 127.701 158.62 128.993 159.065 130.25C160.625 134.649 165.45 136.949 169.843 135.387Z" fill="#393939"/>
</g>
</g>
<defs>
<filter id="filter0_d_393_472" x="0" y="0" width="293" height="286.294" filterUnits="userSpaceOnUse" color-interpolation-filters="sRGB">
<feFlood flood-opacity="0" result="BackgroundImageFix"/>
<feColorMatrix in="SourceAlpha" type="matrix" values="0 0 0 0 0 0 0 0 0 0 0 0 0 0 0 0 0 0 127 0" result="hardAlpha"/>
<feOffset dy="2"/>
<feGaussianBlur stdDeviation="2"/>
<feComposite in2="hardAlpha" operator="out"/>
<feColorMatrix type="matrix" values="0 0 0 0 0 0 0 0 0 0 0 0 0 0 0 0 0 0 0.25 0"/>
<feBlend mode="normal" in2="BackgroundImageFix" result="effect1_dropShadow_393_472"/>
<feBlend mode="normal" in="SourceGraphic" in2="effect1_dropShadow_393_472" result="shape"/>
</filter>
<filter id="filter1_d_393_472" x="100.295" y="82.417" width="93.6457" height="79.5001" filterUnits="userSpaceOnUse" color-interpolation-filters="sRGB">
<feFlood flood-opacity="0" result="BackgroundImageFix"/>
<feColorMatrix in="SourceAlpha" type="matrix" values="0 0 0 0 0 0 0 0 0 0 0 0 0 0 0 0 0 0 127 0" result="hardAlpha"/>
<feOffset dx="1.70819" dy="1.36655"/>
<feComposite in2="hardAlpha" operator="out"/>
<feColorMatrix type="matrix" values="0 0 0 0 0 0 0 0 0 0 0 0 0 0 0 0 0 0 0.25 0"/>
<feBlend mode="normal" in2="BackgroundImageFix" result="effect1_dropShadow_393_472"/>
<feBlend mode="normal" in="SourceGraphic" in2="effect1_dropShadow_393_472" result="shape"/>
</filter>
<filter id="filter2_i_393_472" x="187" y="120" width="28" height="39" filterUnits="userSpaceOnUse" color-interpolation-filters="sRGB">
<feFlood flood-opacity="0" result="BackgroundImageFix"/>
<feBlend mode="normal" in="SourceGraphic" in2="BackgroundImageFix" result="shape"/>
<feColorMatrix in="SourceAlpha" type="matrix" values="0 0 0 0 0 0 0 0 0 0 0 0 0 0 0 0 0 0 127 0" result="hardAlpha"/>
<feOffset dy="5.12998"/>
<feComposite in2="hardAlpha" operator="arithmetic" k2="-1" k3="1"/>
<feColorMatrix type="matrix" values="0 0 0 0 0.890196 0 0 0 0 0.596078 0 0 0 0 0.596078 0 0 0 1 0"/>
<feBlend mode="normal" in2="shape" result="effect1_innerShadow_393_472"/>
</filter>
<filter id="filter3_i_393_472" x="82.8368" y="115.382" width="27.1273" height="37.3877" filterUnits="userSpaceOnUse" color-interpolation-filters="sRGB">
<feFlood flood-opacity="0" result="BackgroundImageFix"/>
<feBlend mode="normal" in="SourceGraphic" in2="BackgroundImageFix" result="shape"/>
<feColorMatrix in="SourceAlpha" type="matrix" values="0 0 0 0 0 0 0 0 0 0 0 0 0 0 0 0 0 0 127 0" result="hardAlpha"/>
<feOffset dx="-2.56499" dy="5.12998"/>
<feComposite in2="hardAlpha" operator="arithmetic" k2="-1" k3="1"/>
<feColorMatrix type="matrix" values="0 0 0 0 0.891667 0 0 0 0 0.594444 0 0 0 0 0.594444 0 0 0 1 0"/>
<feBlend mode="normal" in2="shape" result="effect1_innerShadow_393_472"/>
</filter>
<filter id="filter4_i_393_472" x="121.515" y="176.95" width="54.5264" height="74.3848" filterUnits="userSpaceOnUse" color-interpolation-filters="sRGB">
<feFlood flood-opacity="0" result="BackgroundImageFix"/>
<feBlend mode="normal" in="SourceGraphic" in2="BackgroundImageFix" result="shape"/>
<feColorMatrix in="SourceAlpha" type="matrix" values="0 0 0 0 0 0 0 0 0 0 0 0 0 0 0 0 0 0 127 0" result="hardAlpha"/>
<feOffset dy="1.21436"/>
<feComposite in2="hardAlpha" operator="arithmetic" k2="-1" k3="1"/>
<feColorMatrix type="matrix" values="0 0 0 0 0.970833 0 0 0 0 0.838941 0 0 0 0 0.73217 0 0 0 1 0"/>
<feBlend mode="normal" in2="shape" result="effect1_innerShadow_393_472"/>
</filter>
<filter id="filter5_i_393_472" x="116.076" y="172.577" width="31.1132" height="36.7976" filterUnits="userSpaceOnUse" color-interpolation-filters="sRGB">
<feFlood flood-opacity="0" result="BackgroundImageFix"/>
<feBlend mode="normal" in="SourceGraphic" in2="BackgroundImageFix" result="shape"/>
<feColorMatrix in="SourceAlpha" type="matrix" values="0 0 0 0 0 0 0 0 0 0 0 0 0 0 0 0 0 0 127 0" result="hardAlpha"/>
<feOffset dy="1.21436"/>
<feComposite in2="hardAlpha" operator="arithmetic" k2="-1" k3="1"/>
<feColorMatrix type="matrix" values="0 0 0 0 0.845833 0 0 0 0 0.723115 0 0 0 0 0.503976 0 0 0 1 0"/>
<feBlend mode="normal" in2="shape" result="effect1_innerShadow_393_472"/>
</filter>
<filter id="filter6_i_393_472" x="146.435" y="172.577" width="31.1132" height="36.7976" filterUnits="userSpaceOnUse" color-interpolation-filters="sRGB">
<feFlood flood-opacity="0" result="BackgroundImageFix"/>
<feBlend mode="normal" in="SourceGraphic" in2="BackgroundImageFix" result="shape"/>
<feColorMatrix in="SourceAlpha" type="matrix" values="0 0 0 0 0 0 0 0 0 0 0 0 0 0 0 0 0 0 127 0" result="hardAlpha"/>
<feOffset dy="1.21436"/>
<feComposite in2="hardAlpha" operator="arithmetic" k2="-1" k3="1"/>
<feColorMatrix type="matrix" values="0 0 0 0 0.845833 0 0 0 0 0.723115 0 0 0 0 0.503976 0 0 0 1 0"/>
<feBlend mode="normal" in2="shape" result="effect1_innerShadow_393_472"/>
</filter>
<linearGradient id="paint0_linear_393_472" x1="153.252" y1="-278" x2="153.252" y2="228.837" gradientUnits="userSpaceOnUse">
<stop stop-color="#3F93B7"/>
<stop offset="1" stop-color="#1C5872"/>
</linearGradient>
<linearGradient id="paint1_linear_393_472" x1="148.448" y1="174.385" x2="148.864" y2="253.939" gradientUnits="userSpaceOnUse">
<stop stop-color="#E3C795"/>
<stop offset="1" stop-color="#C2A674"/>
</linearGradient>
<clipPath id="clip0_393_472">
<rect x="4" y="2" width="285" height="278.294" rx="16" fill="white"/>
</clipPath>
</defs>
</svg>
