<svg width="293" height="285" viewBox="0 0 293 285" fill="none" xmlns="http://www.w3.org/2000/svg">
<g filter="url(#filter0_d_271_1990)">
<g clip-path="url(#clip0_271_1990)">
<rect x="4" width="285" height="278.294" rx="16" fill="#376599"/>
<path d="M-24.5497 80.5999C-23.0997 80.7208 -20.0547 80.7449 -19.4747 79.8749C-18.7497 78.7874 -18.7497 78.0624 -17.2997 76.9749C-15.8497 75.8874 -15.1247 74.0749 -11.1372 72.9874C-7.14965 71.8999 -7.51215 70.4499 -4.24965 70.8124C-0.987154 71.1749 0.462847 69.3624 1.18785 68.6374C1.91285 67.9124 4.08785 68.9999 5.17535 67.9124C6.26285 66.8249 6.62535 65.0124 9.16285 65.0124C11.7003 65.0124 10.2503 63.5624 12.0628 63.5624C13.8753 63.5624 13.8753 65.0124 16.7753 65.0124C19.6753 65.0124 23.6628 65.3749 24.7503 63.9249C25.8378 62.4749 27.2878 57.0374 32.3628 55.9499C35.486 55.2807 35.7262 55.2978 35.7024 55.3256C35.739 55.3107 35.8205 55.2807 35.9878 55.2249C37.0753 54.8624 39.6128 50.1499 40.7003 50.1499C41.7878 50.1499 45.7753 49.7874 46.8628 49.4249C47.9503 49.0624 47.9503 47.2499 50.4878 47.2499C53.0253 47.2499 56.6503 37.4624 62.4503 35.2874C68.2503 33.1124 67.8878 29.4874 69.3378 29.1249C70.7878 28.7624 73.3253 25.8624 74.0503 25.8624C74.7753 25.8624 76.5878 24.7749 78.0378 24.7749C79.4878 24.7749 80.5753 26.5874 81.6628 26.5874C82.7503 26.5874 82.3878 29.1249 84.9253 29.1249C87.4628 29.1249 88.1878 27.6749 89.6378 29.1249C91.0878 30.5749 91.8128 33.1124 93.6253 33.1124C95.4378 33.1124 97.6128 34.1999 99.0628 34.1999C100.513 34.1999 104.138 34.9249 104.5 37.0999C104.863 39.2749 105.588 39.2749 106.675 39.2749C107.763 39.2749 111.75 39.2749 112.838 41.0874C113.925 42.8999 115.375 45.7999 117.188 45.7999C119 45.7999 122.263 47.9749 122.263 48.6999C122.263 49.4249 126.25 52.6874 126.975 52.6874C127.7 52.6874 129.875 52.3249 130.6 52.6874C131.325 53.0499 133.5 56.3124 134.588 56.3124C135.675 56.3124 137.488 56.6749 138.213 55.5874C138.938 54.4999 142.2 50.5124 144.013 50.1499C145.825 49.7874 144.738 49.0624 146.188 48.6999C147.638 48.3374 149.813 50.1499 150.9 49.7874C151.988 49.4249 155.613 45.4374 157.425 45.4374C159.238 45.4374 162.5 45.0749 163.225 43.2624C163.95 41.4499 166.488 41.8124 166.85 41.4499C167.213 41.0874 172.288 42.8999 173.375 45.7999C174.463 48.6999 182.075 54.4999 182.8 54.4999C183.525 54.4999 186.063 54.1374 187.15 53.4124C188.238 52.6874 193.313 52.3249 194.4 54.4999C195.488 56.6749 196.938 58.1249 197.3 58.1249C197.663 58.1249 201.288 60.2999 202.738 59.9374C204.188 59.5749 209.625 68.9999 211.438 68.9999C213.25 68.9999 215.788 74.0749 216.513 73.7124C217.238 73.3499 219.775 73.7124 221.588 75.1624C223.4 76.6124 224.85 74.0749 226.3 73.7124C227.75 73.3499 232.1 72.6249 233.188 73.7124C234.275 74.7999 237.175 74.4374 238.263 73.3499C239.35 72.2624 240.8 71.5374 242.613 71.5374C244.425 71.5374 248.775 71.5374 249.863 72.9874C250.95 74.4374 253.488 73.7124 253.85 72.9874C254.213 72.2624 254.938 71.5374 256.025 71.5374C257.113 71.5374 258.563 67.9124 259.288 67.9124C260.013 67.9124 262.913 67.9124 263.638 67.5499C264.363 67.1874 267.263 63.9249 268.713 64.2874C270.163 64.6499 272.338 62.8374 272.338 62.4749C272.338 62.1124 274.875 60.2999 276.325 61.3874C277.775 62.4749 277.413 61.0249 278.5 61.0249C279.588 61.0249 283.938 61.0249 284.663 63.5624C286.596 63.1999 290.68 62.6199 291.55 63.1999C292.638 63.9249 293.363 68.6374 295.175 68.6374C296.988 68.6374 298.438 72.2624 300.975 71.8999C303.513 71.5374 306.05 72.6249 307.863 73.7124C309.675 74.7999 310.4 74.0749 311.488 74.0749C312.575 74.0749 314.025 75.5249 315.113 76.6124C315.983 77.4824 315.475 143.675 315.113 176.662H-24.5497V80.5999Z" fill="white"/>
<path d="M361.334 151.331C359.534 151.481 355.755 151.511 355.036 150.432C354.136 149.082 354.136 148.182 352.336 146.833C350.537 145.483 349.637 143.234 344.688 141.884C339.74 140.534 340.19 138.735 336.141 139.185C332.092 139.635 330.292 137.385 329.392 136.485C328.493 135.586 325.793 136.935 324.444 135.586C323.094 134.236 322.644 131.987 319.495 131.987C316.346 131.987 318.145 130.187 315.896 130.187C313.647 130.187 313.647 131.987 310.048 131.987C306.448 131.987 301.5 132.436 300.15 130.637C298.801 128.837 297.001 122.089 290.703 120.74C286.827 119.909 286.529 119.93 286.558 119.965C286.513 119.946 286.412 119.909 286.204 119.84C284.854 119.39 281.705 113.541 280.355 113.541C279.006 113.541 274.057 113.092 272.707 112.642C271.358 112.192 271.358 109.942 268.209 109.942C265.059 109.942 260.561 97.7956 253.363 95.0963C246.164 92.3971 246.614 87.8983 244.815 87.4484C243.015 86.9985 239.866 83.3994 238.966 83.3994C238.067 83.3994 235.817 82.0498 234.018 82.0498C232.218 82.0498 230.869 84.2992 229.519 84.2992C228.169 84.2992 228.619 87.4484 225.47 87.4484C222.321 87.4484 221.421 85.6488 219.622 87.4484C217.822 89.2479 216.922 92.3971 214.673 92.3971C212.423 92.3971 209.724 93.7467 207.925 93.7467C206.125 93.7467 201.626 94.6465 201.176 97.3457C200.727 100.045 199.827 100.045 198.477 100.045C197.127 100.045 192.179 100.045 190.829 102.294C189.48 104.544 187.68 108.143 185.431 108.143C183.181 108.143 179.132 110.842 179.132 111.742C179.132 112.642 174.184 116.691 173.284 116.691C172.384 116.691 169.685 116.241 168.785 116.691C167.885 117.14 165.186 121.189 163.836 121.189C162.487 121.189 160.237 121.639 159.338 120.29C158.438 118.94 154.389 113.991 152.139 113.541C149.89 113.092 151.24 112.192 149.44 111.742C147.641 111.292 144.941 113.541 143.592 113.092C142.242 112.642 137.743 107.693 135.494 107.693C133.244 107.693 129.195 107.243 128.296 104.994C127.396 102.744 124.247 103.194 123.797 102.744C123.347 102.294 117.049 104.544 115.699 108.143C114.349 111.742 104.902 118.94 104.002 118.94C103.102 118.94 99.9532 118.49 98.6036 117.59C97.254 116.691 90.9557 116.241 89.606 118.94C88.2564 121.639 86.4568 123.439 86.007 123.439C85.5571 123.439 81.0583 126.138 79.2588 125.688C77.4592 125.238 70.711 136.935 68.4616 136.935C66.2122 136.935 63.063 143.234 62.1633 142.784C61.2635 142.334 58.1143 142.784 55.865 144.583C53.6155 146.383 51.816 143.234 50.0165 142.784C48.217 142.334 42.8184 141.434 41.4688 142.784C40.1191 144.133 36.5201 143.683 35.1704 142.334C33.8208 140.984 32.0213 140.084 29.7719 140.084C27.5225 140.084 22.1239 140.084 20.7743 141.884C19.4246 143.683 16.2755 142.784 15.8256 141.884C15.3757 140.984 14.4759 140.084 13.1263 140.084C11.7766 140.084 9.97714 135.586 9.07736 135.586C8.17761 135.586 4.57855 135.586 3.6788 135.136C2.77905 134.686 -0.820007 130.637 -2.61954 131.087C-4.41907 131.537 -7.11835 129.287 -7.11835 128.837C-7.11835 128.388 -10.2675 126.138 -12.067 127.488C-13.8665 128.837 -13.4167 127.038 -14.7663 127.038C-16.1159 127.038 -21.5145 127.038 -22.4143 130.187C-24.8136 129.737 -29.8823 129.017 -30.962 129.737C-32.3116 130.637 -33.2114 136.485 -35.4608 136.485C-37.7102 136.485 -39.5097 140.984 -42.6589 140.534C-45.8081 140.084 -48.9572 141.434 -51.2066 142.784C-53.4561 144.133 -54.3558 143.234 -55.7054 143.234C-57.0551 143.234 -58.8546 145.033 -60.2043 146.383C-61.284 147.462 -60.6541 229.611 -60.2043 270.55H361.334V151.331Z" fill="#DCE5EE"/>
<path d="M-142 205.98C-139.854 206.159 -135.349 206.194 -134.49 204.907C-133.418 203.298 -133.418 202.225 -131.272 200.616C-129.126 199.007 -128.054 196.325 -122.153 194.716C-116.253 193.106 -116.789 190.961 -111.962 191.497C-107.134 192.034 -104.989 189.351 -103.916 188.279C-102.843 187.206 -99.6247 188.815 -98.0155 187.206C-96.4063 185.597 -95.8699 182.915 -92.1151 182.915C-88.3603 182.915 -90.5059 180.769 -87.824 180.769C-85.142 180.769 -85.142 182.915 -80.8508 182.915C-76.5596 182.915 -70.6593 183.451 -69.0501 181.306C-67.4409 179.16 -65.2953 171.114 -57.7858 169.505C-53.1646 168.515 -52.809 168.54 -52.8442 168.581C-52.79 168.559 -52.6694 168.515 -52.4218 168.432C-50.8126 167.896 -47.0578 160.922 -45.4487 160.922C-43.8395 160.922 -37.9391 160.386 -36.3299 159.85C-34.7207 159.313 -34.7207 156.631 -30.966 156.631C-27.2112 156.631 -21.8472 142.149 -13.2649 138.93C-4.68254 135.712 -5.21893 130.348 -3.07335 129.812C-0.927765 129.275 2.82701 124.984 3.8998 124.984C4.9726 124.984 7.65457 123.375 9.80016 123.375C11.9457 123.375 13.5549 126.057 15.1641 126.057C16.7733 126.057 16.2369 129.812 19.9917 129.812C23.7465 129.812 24.8192 127.666 26.9648 129.812C29.1104 131.957 30.1832 135.712 32.8652 135.712C35.5472 135.712 38.7655 137.321 40.9111 137.321C43.0567 137.321 48.4207 138.394 48.9571 141.612C49.4935 144.831 50.5663 144.831 52.1755 144.831C53.7847 144.831 59.685 144.831 61.2942 147.513C62.9034 150.195 65.049 154.486 67.7309 154.486C70.4129 154.486 75.2405 157.704 75.2405 158.777C75.2405 159.85 81.1409 164.677 82.2136 164.677C83.2864 164.677 86.5048 164.141 87.5776 164.677C88.6504 165.214 91.8688 170.041 93.478 170.041C95.0872 170.041 97.7691 170.578 98.8419 168.968C99.9147 167.359 104.742 161.459 107.424 160.922C110.106 160.386 108.497 159.313 110.643 158.777C112.788 158.241 116.007 160.922 117.616 160.386C119.225 159.85 124.589 153.949 127.271 153.949C129.953 153.949 134.78 153.413 135.853 150.731C136.926 148.049 140.681 148.585 141.217 148.049C141.754 147.513 149.263 150.195 150.872 154.486C152.482 158.777 163.746 167.359 164.819 167.359C165.891 167.359 169.646 166.823 171.255 165.75C172.865 164.677 180.374 164.141 181.983 167.359C183.593 170.578 185.738 172.723 186.275 172.723C186.811 172.723 192.175 175.942 194.32 175.405C196.466 174.869 204.512 188.815 207.194 188.815C209.876 188.815 213.631 196.325 214.704 195.788C215.776 195.252 219.531 195.788 222.213 197.934C224.895 200.079 227.041 196.325 229.186 195.788C231.332 195.252 237.769 194.179 239.378 195.788C240.987 197.397 245.278 196.861 246.887 195.252C248.496 193.643 250.642 192.57 253.324 192.57C256.006 192.57 262.443 192.57 264.052 194.715C265.661 196.861 269.416 195.788 269.952 194.715C270.489 193.643 271.561 192.57 273.171 192.57C274.78 192.57 276.925 187.206 277.998 187.206C279.071 187.206 283.362 187.206 284.435 186.67C285.508 186.133 289.799 181.306 291.945 181.842C294.09 182.378 297.309 179.696 297.309 179.16C297.309 178.624 301.063 175.942 303.209 177.551C305.354 179.16 304.818 177.014 306.427 177.014C308.036 177.014 314.473 177.014 315.546 180.769C318.407 180.233 324.45 179.375 325.738 180.233C327.347 181.306 328.419 188.279 331.101 188.279C333.783 188.279 335.929 193.643 339.684 193.106C343.439 192.57 347.193 194.179 349.875 195.788C352.557 197.397 353.63 196.325 355.239 196.325C356.849 196.325 358.994 198.47 360.603 200.079C361.891 201.367 361.14 299.313 360.603 348.125H-142V205.98Z" fill="#C4D2E0"/>
<rect x="8.79987" y="262.575" width="282.75" height="125.425" fill="white"/>
<path d="M121.368 254.254C120.999 253.886 121.214 251.797 121.368 250.799C123.441 247.805 108.929 245.271 108.008 248.726C107.087 252.181 102.019 256.558 97.4121 258.861C92.8052 261.165 91.1928 264.62 91.8838 266.923C92.5748 269.227 95.339 269.687 96.03 270.148C96.721 270.609 113.766 271.53 119.295 270.148C124.823 268.766 126.205 264.62 126.205 262.547C126.205 260.473 121.829 254.715 121.368 254.254Z" fill="#382E35"/>
<path d="M172.582 254.254C172.95 253.886 172.735 251.797 172.582 250.799C170.508 247.805 185.02 245.271 185.942 248.726C186.863 252.181 191.931 256.558 196.538 258.861C201.144 261.165 202.757 264.62 202.066 266.923C201.375 269.227 198.611 269.687 197.92 270.148C197.229 270.609 180.183 271.53 174.655 270.148C169.127 268.766 167.745 264.62 167.745 262.547C167.745 260.473 172.121 254.715 172.582 254.254Z" fill="#382E35"/>
<path d="M119.833 252.359C96.6143 247.752 88.9668 226.638 88.0455 216.656H205.751C202.075 244.457 181.21 250.715 178.819 251.433L178.801 251.438C176.498 252.129 148.856 258.118 119.833 252.359Z" fill="#F1F1F1"/>
<g clip-path="url(#clip1_271_1990)">
<path d="M203.44 118.76C205.743 152.851 178.785 158.379 147.236 158.379C115.686 158.379 88.0373 153.312 91.0317 118.76C93.6668 88.3547 115.686 72.0002 147.236 72.0002C178.785 72.0002 201.556 90.8884 203.44 118.76Z" fill="#F1F1F1"/>
<path fill-rule="evenodd" clip-rule="evenodd" d="M97.2589 96.6473C99.8694 92.6547 106.242 84.5484 112.692 83.9956C120.754 83.3046 134.114 89.5239 134.114 105.648V123.845H147.013V71.557C141.348 71.4546 132.69 71.7309 123.979 74.5435C113.092 78.0584 102.582 85.1826 97.2589 96.6473ZM196.998 96.8778C194.387 92.8852 187.784 84.5579 181.335 84.005C173.273 83.314 159.913 89.5333 159.913 105.657V123.855H147.013V71.5665C152.679 71.4641 161.336 71.7404 170.048 74.553C180.934 78.0678 191.675 85.4131 196.998 96.8778Z" fill="#3C3135"/>
<path d="M138.721 144.559C127.111 143.269 119.142 137.111 116.608 134.194L178.34 133.733C173.272 141.795 153.232 146.171 138.721 144.559Z" fill="#DF921C"/>
<path d="M147.243 140.897C130.29 141.45 118.834 135.753 115.225 132.835C115.225 132.144 125.13 119.705 147.243 119.014C169.356 118.323 179.031 132.835 178.34 133.526C177.648 134.217 168.435 140.206 147.243 140.897Z" fill="#FFC921"/>
<ellipse cx="163.23" cy="126.721" rx="2.76413" ry="1.84275" transform="rotate(36.3995 163.23 126.721)" fill="#2C2728"/>
<ellipse cx="2.76413" cy="1.84275" rx="2.76413" ry="1.84275" transform="matrix(-0.804899 0.593412 0.593412 0.804899 131.653 123.598)" fill="#2C2728"/>
<ellipse cx="186.863" cy="112.653" rx="10.7063" ry="14.2331" transform="rotate(-15.1343 186.863 112.653)" fill="#292826"/>
<ellipse cx="10.7063" cy="14.2331" rx="10.7063" ry="14.2331" transform="matrix(-0.965317 -0.261082 -0.261082 0.965317 121.215 101.547)" fill="#292826"/>
</g>
<path d="M107.394 151.699L104.169 154.694C106.703 162.295 127.729 161.604 150.929 161.604C168.435 161.604 181.411 157.688 187.323 154.233L185.941 151.699H107.394Z" fill="#F1F1F1"/>
<path d="M187.606 153.542C188.988 154.387 191.752 156.168 191.752 156.537C191.752 156.997 202.348 162.986 204.651 168.054C206.954 173.121 217.32 192.701 217.781 192.931C218.241 193.161 218.472 194.543 219.393 195.004C220.314 195.465 222.618 195.926 222.618 197.768C222.618 199.611 220.314 205.139 218.702 206.752C217.09 208.364 213.634 210.898 210.64 209.285C207.645 207.673 209.258 205.83 208.797 204.909C208.503 204.321 207.927 203.639 207.31 202.683C206.974 203.221 206.954 204.448 206.954 205.6C206.954 206.752 208.336 210.898 208.106 212.741C207.876 214.583 206.263 216.426 200.044 220.572C193.824 224.718 169.178 226.792 167.335 227.022C165.492 227.252 136.699 227.943 115.508 225.87C94.316 223.797 89.7091 218.269 87.1754 215.965C84.6416 213.662 85.1023 208.825 86.0236 207.673C86.7607 206.752 86.6108 204.064 86.4437 202.836C86.2428 203.279 86.0976 203.527 86.0236 203.527C85.3326 203.527 84.6416 204.909 84.4112 206.291C84.1809 207.673 81.1864 211.128 77.2706 209.285C73.3547 207.443 71.5122 200.763 71.0515 198.459C70.5908 196.156 73.3549 195.465 74.046 195.234C74.737 195.004 75.428 194.083 75.6584 192.931C75.8887 191.779 80.7259 184.178 84.6418 175.195C88.5576 166.211 99.8445 157.458 100.536 156.997C101.088 156.629 103.837 154.54 105.142 153.542C105.833 156.767 123.109 159.07 149.368 159.762C170.376 160.314 183.613 155.846 187.606 153.542Z" fill="#980808"/>
<path d="M77.9822 209.055C77.2451 209.055 74.1431 205.216 72.6843 203.296C72.3004 203.68 71.4404 204.909 71.0719 206.752C70.6112 209.055 72.4539 212.049 74.0663 212.28C75.3563 212.464 77.2144 210.207 77.9822 209.055Z" fill="#F1F1F1"/>
<path d="M215.656 209.055C216.393 209.055 219.495 205.216 220.954 203.296C221.338 203.68 222.198 204.909 222.566 206.752C223.027 209.055 221.184 212.049 219.572 212.28C218.282 212.464 216.424 210.207 215.656 209.055Z" fill="#F1F1F1"/>
<path d="M134.544 188.221C134.661 188.09 134.802 187.984 134.961 187.907C135.119 187.831 135.29 187.786 135.466 187.776C135.641 187.766 135.817 187.791 135.982 187.849C136.148 187.907 136.301 187.997 136.432 188.114L140.7 191.92L138.92 193.916L134.652 190.11C134.521 189.993 134.414 189.851 134.338 189.693C134.261 189.535 134.217 189.363 134.207 189.188C134.197 189.012 134.221 188.837 134.279 188.671C134.337 188.505 134.427 188.352 134.544 188.221Z" fill="white"/>
<path d="M158.145 193.916L156.365 191.92L160.633 188.114C160.898 187.878 161.245 187.756 161.599 187.777C161.954 187.797 162.285 187.957 162.521 188.222C162.757 188.486 162.878 188.834 162.858 189.188C162.838 189.542 162.678 189.874 162.413 190.11L158.145 193.916Z" fill="white"/>
<path d="M159.922 196.393C160.873 200.608 162.177 203.321 161.528 204.878C161.187 205.697 160.486 206.384 159.327 206.384C157.521 206.384 157.521 204.253 155.714 204.253C153.907 204.253 153.907 206.384 152.1 206.384C150.294 206.384 150.294 204.253 148.487 204.253C146.681 204.253 146.681 206.384 144.874 206.384C143.068 206.384 143.068 204.253 141.261 204.253C139.455 204.253 139.455 206.384 137.649 206.384C136.576 206.384 135.97 205.752 135.585 205.022C134.661 203.269 136.815 199.41 137.649 196.007C138.57 192.247 138.492 187.563 138.616 184.738C138.854 179.291 143.036 174.866 148.489 174.866C153.942 174.866 157.964 179.3 158.361 184.738C158.575 187.67 159.05 192.533 159.922 196.393Z" fill="white"/>
<path d="M144.779 185.375C145.384 185.375 145.874 184.885 145.874 184.281C145.874 183.676 145.384 183.186 144.779 183.186C144.175 183.186 143.685 183.676 143.685 184.281C143.685 184.885 144.175 185.375 144.779 185.375Z" fill="#292A2E"/>
<path d="M152.284 185.375C152.888 185.375 153.378 184.885 153.378 184.281C153.378 183.676 152.888 183.186 152.284 183.186C151.679 183.186 151.189 183.676 151.189 184.281C151.189 184.885 151.679 185.375 152.284 185.375Z" fill="#292A2E"/>
<path d="M150.492 187.235C150.555 187.235 150.617 187.249 150.675 187.276C150.732 187.303 150.782 187.342 150.822 187.391C150.862 187.44 150.89 187.497 150.906 187.559C150.921 187.62 150.922 187.684 150.909 187.746C150.675 188.843 149.699 189.533 148.532 189.533C147.365 189.533 146.39 188.843 146.155 187.746C146.142 187.684 146.144 187.62 146.159 187.559C146.174 187.497 146.202 187.44 146.242 187.391C146.282 187.342 146.333 187.303 146.39 187.276C146.447 187.249 146.509 187.235 146.572 187.235H150.492Z" fill="white"/>
<path d="M148.531 189.665C147.273 189.665 146.266 188.905 146.024 187.773C146.007 187.692 146.008 187.609 146.027 187.529C146.046 187.449 146.083 187.374 146.135 187.31C146.188 187.245 146.254 187.192 146.33 187.156C146.405 187.12 146.488 187.101 146.571 187.102H150.491C150.575 187.101 150.657 187.12 150.733 187.156C150.808 187.192 150.875 187.245 150.927 187.31C150.979 187.374 151.016 187.449 151.035 187.529C151.055 187.609 151.056 187.692 151.039 187.773C150.796 188.905 149.788 189.665 148.531 189.665ZM146.571 187.367C146.527 187.367 146.484 187.377 146.444 187.396C146.405 187.415 146.37 187.443 146.342 187.477C146.315 187.51 146.296 187.549 146.286 187.59C146.276 187.632 146.275 187.675 146.284 187.717C146.499 188.723 147.402 189.399 148.531 189.399C149.66 189.399 150.563 188.723 150.778 187.717C150.787 187.675 150.786 187.632 150.776 187.59C150.766 187.549 150.746 187.51 150.719 187.477C150.692 187.443 150.657 187.415 150.617 187.396C150.578 187.377 150.534 187.367 150.49 187.367H146.571Z" fill="#292A2E"/>
<rect x="100.15" y="19.7002" width="1.45" height="1.45" fill="white"/>
<rect x="229.925" y="63.2" width="1.45" height="1.45" fill="white"/>
<rect x="282.85" y="19.7002" width="1.45" height="1.45" fill="white"/>
<rect x="214.7" y="-0.600342" width="1.45" height="1.45" fill="white"/>
</g>
</g>
<defs>
<filter id="filter0_d_271_1990" x="0" y="-2" width="293" height="286.294" filterUnits="userSpaceOnUse" color-interpolation-filters="sRGB">
<feFlood flood-opacity="0" result="BackgroundImageFix"/>
<feColorMatrix in="SourceAlpha" type="matrix" values="0 0 0 0 0 0 0 0 0 0 0 0 0 0 0 0 0 0 127 0" result="hardAlpha"/>
<feOffset dy="2"/>
<feGaussianBlur stdDeviation="2"/>
<feComposite in2="hardAlpha" operator="out"/>
<feColorMatrix type="matrix" values="0 0 0 0 0 0 0 0 0 0 0 0 0 0 0 0 0 0 0.25 0"/>
<feBlend mode="normal" in2="BackgroundImageFix" result="effect1_dropShadow_271_1990"/>
<feBlend mode="normal" in="SourceGraphic" in2="effect1_dropShadow_271_1990" result="shape"/>
</filter>
<clipPath id="clip0_271_1990">
<rect x="4" width="285" height="278.294" rx="16" fill="white"/>
</clipPath>
<clipPath id="clip1_271_1990">
<rect width="112.768" height="86.379" fill="white" transform="translate(90.809 72.0002)"/>
</clipPath>
</defs>
</svg>
