<svg width="293" height="285" viewBox="0 0 293 285" fill="none" xmlns="http://www.w3.org/2000/svg">
<g filter="url(#filter0_d_271_1819)">
<g clip-path="url(#clip0_271_1819)">
<rect x="-3.6257" y="-279.505" width="313.756" height="489.137" fill="url(#paint0_linear_271_1819)"/>
<path d="M287.128 174.083L291.242 199.325H262.951L268.019 174.083H287.128Z" fill="#262626"/>
<path opacity="0.2" d="M287.128 174.083L291.242 199.325H262.951L268.019 174.083H287.128Z" fill="white"/>
<path d="M277.816 174.163C277.801 174.163 277.786 174.162 277.772 174.16C277.702 174.148 277.639 174.11 277.598 174.054C277.557 173.998 277.54 173.927 277.551 173.859L285.343 127.952C285.356 127.885 285.395 127.825 285.453 127.786C285.51 127.747 285.581 127.732 285.65 127.743C285.719 127.754 285.781 127.791 285.822 127.846C285.863 127.901 285.881 127.97 285.871 128.037L278.08 173.944C278.069 174.005 278.037 174.061 277.989 174.101C277.941 174.141 277.879 174.163 277.816 174.163Z" fill="#494949"/>
<path d="M279.652 163.759C279.591 163.759 279.531 163.738 279.483 163.701C279.436 163.663 279.403 163.61 279.39 163.551C279.377 163.492 279.386 163.431 279.414 163.378C279.442 163.324 279.488 163.282 279.545 163.258L298.568 155.137C298.633 155.111 298.705 155.111 298.769 155.137C298.834 155.163 298.885 155.212 298.913 155.274C298.941 155.337 298.943 155.407 298.919 155.471C298.894 155.535 298.846 155.586 298.783 155.616L279.759 163.737C279.725 163.752 279.689 163.759 279.652 163.759Z" fill="#494949"/>
<path d="M280.595 155.898C280.559 155.89 280.525 155.876 280.495 155.855L267.662 146.903C267.632 146.884 267.606 146.859 267.586 146.83C267.566 146.801 267.552 146.768 267.545 146.733C267.538 146.698 267.539 146.663 267.546 146.628C267.554 146.594 267.569 146.561 267.59 146.532C267.611 146.504 267.637 146.479 267.668 146.461C267.699 146.442 267.733 146.43 267.769 146.425C267.805 146.42 267.841 146.422 267.876 146.431C267.911 146.44 267.944 146.456 267.973 146.478L280.805 155.43C280.855 155.465 280.891 155.515 280.907 155.573C280.923 155.631 280.919 155.693 280.894 155.747C280.869 155.802 280.825 155.847 280.771 155.874C280.716 155.902 280.654 155.91 280.593 155.898L280.595 155.898Z" fill="#494949"/>
<path d="M304.1 169.719C309.66 167.027 311.577 159.745 308.383 153.454C305.188 147.163 298.091 144.245 292.532 146.937C286.972 149.629 285.055 156.911 288.249 163.202C291.444 169.493 298.541 172.411 304.1 169.719Z" fill="#0CBC8B"/>
<path opacity="0.5" d="M305.495 167.899C299.936 170.591 292.838 167.673 289.643 161.382C287.477 157.115 287.661 152.395 289.741 148.956C290.54 148.125 291.485 147.44 292.532 146.934C298.092 144.242 305.189 147.16 308.383 153.45C310.551 157.717 310.367 162.44 308.286 165.876C307.487 166.708 306.541 167.393 305.495 167.899Z" fill="white"/>
<path d="M296.709 132.929C299.015 127.348 296.035 120.912 290.053 118.555C284.07 116.197 277.35 118.811 275.043 124.392C272.737 129.974 275.717 136.409 281.7 138.767C287.682 141.124 294.402 138.511 296.709 132.929Z" fill="#0CBC8B"/>
<path opacity="0.5" d="M296.707 132.927C296.62 133.138 296.527 133.343 296.426 133.546C293.471 137.614 287.77 139.272 282.617 137.241C276.634 134.883 273.654 128.447 275.96 122.866C276.047 122.655 276.141 122.45 276.242 122.247C279.197 118.179 284.898 116.52 290.051 118.552C296.034 120.91 299.014 127.346 296.707 132.927Z" fill="white"/>
<path d="M274.135 150.517C277.14 145.103 275.698 138.662 270.913 136.129C266.129 133.597 259.814 135.933 256.809 141.346C253.804 146.76 255.246 153.202 260.031 155.734C264.815 158.266 271.13 155.931 274.135 150.517Z" fill="#0CBC8B"/>
<path opacity="0.5" d="M258.869 154.098C263.653 156.631 269.968 154.294 272.973 148.881C275.011 145.21 275.003 141.066 273.294 137.988C272.621 137.234 271.815 136.605 270.914 136.129C266.13 133.596 259.815 135.933 256.81 141.346C254.771 145.019 254.778 149.163 256.489 152.239C257.162 152.992 257.968 153.622 258.869 154.098Z" fill="white"/>
<path d="M302.726 -82.0225H169.136V48.425H302.726V-82.0225Z" fill="#B5E1E3"/>
<path opacity="0.05" d="M270.363 7.86674V-26.2625H241.733V-6.43421H197.384V28.6746H178.535V48.4252H197.384H201.015H296.3V7.86674H270.363Z" fill="black"/>
<path opacity="0.34" d="M292.603 11.4636H288.76V15.1692H292.603V11.4636Z" fill="#FFFFFA"/>
<path opacity="0.34" d="M292.603 19.1426H288.76V22.8482H292.603V19.1426Z" fill="#FFFFFA"/>
<path opacity="0.34" d="M292.603 26.8213H288.76V30.5269H292.603V26.8213Z" fill="#FFFFFA"/>
<path opacity="0.34" d="M285.494 11.4636H281.651V15.1692H285.494V11.4636Z" fill="#FFFFFA"/>
<path opacity="0.34" d="M285.494 19.1426H281.651V22.8482H285.494V19.1426Z" fill="#FFFFFA"/>
<path opacity="0.34" d="M285.494 26.8213H281.651V30.5269H285.494V26.8213Z" fill="#FFFFFA"/>
<path opacity="0.34" d="M278.577 11.4634H274.734V15.169H278.577V11.4634Z" fill="#FFFFFA"/>
<path opacity="0.34" d="M278.577 19.1426H274.734V22.8482H278.577V19.1426Z" fill="#FFFFFA"/>
<path opacity="0.34" d="M278.577 26.8213H274.734V30.5269H278.577V26.8213Z" fill="#FFFFFA"/>
<path d="M302.726 -17.5305H275.846V-82.0225H273.623V-17.5305H201.015V-82.0225H198.792V-17.5305H169.136V-15.3597H198.792V48.425H201.015V-15.3597H273.623V48.425H275.846V-15.3597H302.726V-17.5305Z" fill="white"/>
<path d="M308.048 48.2676H163.814V52.6056H308.048V48.2676Z" fill="#F4F4F4"/>
<path opacity="0.1" d="M308.048 48.2676H163.814V52.6056H308.048V48.2676Z" fill="black"/>
<path d="M304.464 199.842H2.03996C2.00625 199.843 1.97265 199.837 1.94117 199.825C1.90969 199.813 1.88097 199.796 1.85672 199.773C1.83247 199.75 1.81319 199.722 1.80002 199.692C1.78685 199.662 1.78006 199.629 1.78006 199.596C1.78006 199.563 1.78685 199.531 1.80002 199.5C1.81319 199.47 1.83247 199.443 1.85672 199.42C1.88097 199.397 1.90969 199.379 1.94117 199.367C1.97265 199.355 2.00625 199.35 2.03996 199.351H304.464C304.498 199.35 304.531 199.355 304.563 199.367C304.594 199.379 304.623 199.397 304.647 199.42C304.671 199.443 304.691 199.47 304.704 199.5C304.717 199.531 304.724 199.563 304.724 199.596C304.724 199.629 304.717 199.662 304.704 199.692C304.691 199.722 304.671 199.75 304.647 199.773C304.623 199.796 304.594 199.813 304.563 199.825C304.531 199.837 304.498 199.843 304.464 199.842Z" fill="#292A2E"/>
<g opacity="0.65">
<path d="M304.464 199.842H2.03996C2.00625 199.843 1.97265 199.837 1.94117 199.825C1.90969 199.813 1.88097 199.796 1.85672 199.773C1.83247 199.75 1.81319 199.722 1.80002 199.692C1.78685 199.662 1.78006 199.629 1.78006 199.596C1.78006 199.563 1.78685 199.531 1.80002 199.5C1.81319 199.47 1.83247 199.443 1.85672 199.42C1.88097 199.397 1.90969 199.379 1.94117 199.367C1.97265 199.355 2.00625 199.35 2.03996 199.351H304.464C304.498 199.35 304.531 199.355 304.563 199.367C304.594 199.379 304.623 199.397 304.647 199.42C304.671 199.443 304.691 199.47 304.704 199.5C304.717 199.531 304.724 199.563 304.724 199.596C304.724 199.629 304.717 199.662 304.704 199.692C304.691 199.722 304.671 199.75 304.647 199.773C304.623 199.796 304.594 199.813 304.563 199.825C304.531 199.837 304.498 199.843 304.464 199.842Z" fill="#292A2E"/>
</g>
<rect x="-3.62573" y="199.001" width="313.756" height="195.494" fill="#D5AF76"/>
<path d="M46.9975 92.1862V161.026C90.2147 161.596 176.649 161.163 176.649 154.877C176.649 147.019 190.827 111.83 200.051 98.1648C207.431 87.2324 198.343 82.1078 192.877 80.9121H58.1007C51.2679 80.9121 47.8516 88.4281 46.9975 92.1862Z" fill="#DC994F"/>
<circle cx="103.539" cy="121.054" r="4.27047" fill="#CB843C"/>
<circle cx="146.244" cy="121.054" r="4.27047" fill="#CB843C"/>
<path d="M200.051 98.1648C207.431 87.2324 198.343 82.1078 192.877 80.9121H137.057C163.295 142.27 87.9499 156.699 46.9975 154.877V161.026C90.2147 161.596 176.649 161.163 176.649 154.877C176.649 147.019 190.827 111.83 200.051 98.1648Z" fill="#CB843C"/>
<path d="M47.0359 92.1862V161.026C3.8187 161.596 -82.6157 161.163 -82.6157 154.877C-82.6157 147.019 -96.7936 111.83 -106.018 98.1648C-113.397 87.2324 -104.31 82.1078 -98.8435 80.9121H35.9327C42.7654 80.9121 46.1818 88.4281 47.0359 92.1862Z" fill="#DC994F"/>
<path d="M47.0359 92.1862V161.026C3.8187 161.596 -82.6157 161.163 -82.6157 154.877C-27.8397 165.752 70.2331 166.185 24.317 80.9121H35.9327C42.7654 80.9121 46.1818 88.4281 47.0359 92.1862Z" fill="#CB843C"/>
<path d="M205.033 193.811L209.788 229C209.899 229.82 209.261 230.55 208.433 230.55H204.548C204.017 230.55 203.533 230.242 203.309 229.76L192.6 206.742C192.375 206.26 191.892 205.952 191.361 205.952H-97.4651C-97.9937 205.952 -98.475 206.257 -98.7008 206.735L-109.577 229.767C-109.803 230.245 -110.284 230.55 -110.813 230.55H-114.519C-115.351 230.55 -115.99 229.812 -115.871 228.988L-110.799 193.8C-110.702 193.127 -110.126 192.628 -109.446 192.628H203.678C204.362 192.628 204.941 193.134 205.033 193.811Z" fill="#89563D"/>
<path d="M199.748 97.311C224.209 108.243 233.855 115.873 235.62 118.322C212.901 118.322 212.218 201.681 201.115 201.34C190.011 200.998 169.684 187.333 175.833 154.023C180.753 127.375 193.826 105.112 199.748 97.311Z" fill="#D29049"/>
<path d="M201.743 201.695H212.163C213.814 201.467 217.25 200.005 218.142 196.058C220.927 183.73 225.191 162.506 230.099 145.318C234.028 124.472 243.594 115.429 226.341 115.429C206.637 115.43 195.594 190.762 195.594 196.058C195.594 200.294 199.693 201.581 201.743 201.695Z" fill="#E8A660"/>
<rect width="297.225" height="26.6478" rx="5.80784" transform="matrix(-1 0 0 1 195.648 175.204)" fill="#D08C47"/>
<path d="M47.0359 158.683V165.635C47.0359 166.391 46.4221 167.003 45.6661 167.001L-100.259 166.661C-100.993 166.659 -101.601 166.078 -101.584 165.345C-101.518 162.519 -100.821 160.796 -99.5267 160.342L-83.9664 155.452C-83.8338 155.41 -83.6957 155.389 -83.5567 155.389H44.1254C46.1799 155.527 46.9218 157.642 47.0359 158.683Z" fill="#E8A660"/>
<mask id="path-42-inside-1_271_1819" fill="white">
<path d="M47.0359 165.296C47.0359 162.655 44.8945 160.513 42.2529 160.513H-96.7937C-99.4352 160.513 -101.577 162.655 -101.577 165.296V175.887C-101.577 178.528 -99.4352 180.67 -96.7937 180.67H42.2529C44.8945 180.67 47.0359 178.528 47.0359 175.887V165.296Z"/>
</mask>
<path d="M47.0359 165.296C47.0359 162.655 44.8945 160.513 42.2529 160.513H-96.7937C-99.4352 160.513 -101.577 162.655 -101.577 165.296V175.887C-101.577 178.528 -99.4352 180.67 -96.7937 180.67H42.2529C44.8945 180.67 47.0359 178.528 47.0359 175.887V165.296Z" fill="#E8A660"/>
<path d="M47.0359 165.296C47.0359 162.466 44.7415 160.172 41.9113 160.172H-96.452C-99.2823 160.172 -101.577 162.466 -101.577 165.296V165.296C-101.577 162.843 -99.4352 160.855 -96.7937 160.855H42.2529C44.8945 160.855 47.0359 162.843 47.0359 165.296V165.296ZM-101.577 180.67H47.0359H-101.577ZM47.0359 180.67V160.513V180.67ZM-101.577 160.513V180.67V160.513Z" fill="#FBC58C" mask="url(#path-42-inside-1_271_1819)"/>
<path d="M47.0237 158.683V165.635C47.0237 166.391 47.6375 167.003 48.3935 167.001L194.319 166.661C195.052 166.659 195.66 166.078 195.643 165.345C195.577 162.519 194.881 160.796 193.586 160.342L178.026 155.452C177.893 155.41 177.755 155.389 177.616 155.389H49.9343C47.8798 155.527 47.1379 157.642 47.0237 158.683Z" fill="#E8A660"/>
<mask id="path-45-inside-2_271_1819" fill="white">
<path d="M47.0237 165.296C47.0237 162.655 49.1651 160.513 51.8067 160.513H190.853C193.495 160.513 195.636 162.655 195.636 165.296V175.887C195.636 178.528 193.495 180.67 190.853 180.67H51.8067C49.1651 180.67 47.0237 178.528 47.0237 175.887V165.296Z"/>
</mask>
<path d="M47.0237 165.296C47.0237 162.655 49.1651 160.513 51.8067 160.513H190.853C193.495 160.513 195.636 162.655 195.636 165.296V175.887C195.636 178.528 193.495 180.67 190.853 180.67H51.8067C49.1651 180.67 47.0237 178.528 47.0237 175.887V165.296Z" fill="#E8A660"/>
<path d="M47.0237 165.296C47.0237 162.466 49.3181 160.172 52.1483 160.172H190.512C193.342 160.172 195.636 162.466 195.636 165.296V165.296C195.636 162.843 193.495 160.855 190.853 160.855H51.8067C49.1651 160.855 47.0237 162.843 47.0237 165.296V165.296ZM195.636 180.67H47.0237H195.636ZM47.0237 180.67V160.513V180.67ZM195.636 160.513V180.67V160.513Z" fill="#FBC58C" mask="url(#path-45-inside-2_271_1819)"/>
<g filter="url(#filter1_d_271_1819)">
<path d="M172.738 87.7478C176.564 91.3009 182.759 126.695 185.379 143.947C186.745 144.631 189.957 147.022 191.87 151.122C193.783 155.221 187.656 155.107 184.354 154.538C182.645 155.734 121.151 156.759 116.539 158.638C112.849 160.141 113.293 154.139 113.976 150.951C111.414 148.559 102.361 106.709 100.482 100.901C98.9784 96.2547 106.916 96.6874 111.072 97.4845C123.713 87.5771 163.343 85.5272 163.514 84.8439C163.685 84.1607 169.492 81.0859 171.713 80.9151C173.49 80.7784 173.137 85.4133 172.738 87.7478Z" fill="#002269"/>
<path d="M179.933 113.368C180.958 117.467 182.759 126.865 185.378 144.118C186.745 144.801 189.956 147.193 191.87 151.292C193.783 155.392 187.656 155.278 184.354 154.709C182.645 155.904 121.151 156.929 116.538 158.808C112.849 160.311 113.293 154.31 113.976 151.121C111.414 148.73 102.36 106.879 100.481 101.071C98.9783 96.4252 106.916 96.8579 111.072 97.6551C117.755 92.0152 127.15 91.1611 127.321 90.4778C140.593 117.399 168.153 117.524 179.933 113.368Z" fill="#001E5C"/>
<path d="M113.87 150.862C111.308 148.471 102.894 109.268 101.186 103.46C103.634 101.524 108.561 100.092 109.108 109.521C109.791 121.307 120.682 145.74 116.433 158.549C112.743 160.052 113.187 154.051 113.87 150.862Z" fill="#001644"/>
</g>
<ellipse cx="50.6782" cy="292.496" rx="147.626" ry="76.4277" fill="#59BAD9"/>
<ellipse cx="50.7543" cy="292.496" rx="122.763" ry="63.5557" fill="#4388AE"/>
<ellipse cx="50.7541" cy="292.788" rx="93.8007" ry="48.5617" fill="#1E4E87"/>
<path d="M80.8594 253.305C80.8594 241.296 103.944 239.625 118.052 240.48C120.617 240.607 119.334 245.61 118.052 245.61C116.769 245.61 85.9894 245.61 85.9894 253.305C85.9894 261 121.899 260.635 121.899 262.283C121.899 262.751 80.8594 264.304 80.8594 253.305Z" fill="#8E4747"/>
<path d="M226.716 93.9196C202.092 84.6856 188.241 98.622 184.393 106.745L186.958 160.609C236.976 174.717 245.953 146.502 248.518 141.372C251.083 136.242 257.496 105.462 226.716 93.9196Z" fill="#E3C795"/>
<path d="M84.3582 80.6117C110.638 79.6296 117.901 102.47 118.986 111.392L105.192 156.708C53.2798 154.292 52.2958 122.934 52.2958 119.087C52.2958 113.351 51.5082 81.8393 84.3582 80.6117Z" fill="#E3C795"/>
<g filter="url(#filter2_i_271_1819)">
<path d="M222.884 103.467C201.982 96.3917 190.224 107.07 186.958 113.294L189.135 154.566C231.594 165.375 239.214 143.756 241.392 139.826C243.569 135.895 249.013 112.311 222.884 103.467Z" fill="#E8B6B6"/>
</g>
<g filter="url(#filter3_i_271_1819)">
<path d="M89.1575 91.1429C111.225 91.0334 111.44 114.715 112.573 121.652L105.035 150.287C61.3366 147.129 60.1116 124.286 60.1116 119.793C60.1116 115.239 61.5733 91.2798 89.1575 91.1429Z" fill="#E8B6B6"/>
</g>
<path d="M131.069 252.05H110.549C110.549 246.92 115.679 246.92 114.397 245.637C113.114 244.355 102.854 240.507 101.572 227.682C100.546 217.422 111.404 214.002 116.962 213.575H120.809V237.942C127.991 237.942 130.641 247.347 131.069 252.05Z" fill="#E3C795"/>
<rect x="113.647" y="247.577" width="3.64307" height="3.64307" rx="1.21436" fill="#FDE8D7"/>
<rect x="118.505" y="247.577" width="3.64307" height="3.64307" rx="1.21436" fill="#FDE8D7"/>
<rect x="124.576" y="247.577" width="3.64307" height="3.64307" rx="1.21436" fill="#FDE8D7"/>
<path d="M165.865 252.05H186.385C186.385 246.92 181.255 246.92 182.537 245.637C183.82 244.355 194.08 240.507 195.362 227.682C196.388 217.422 185.53 214.002 179.972 213.575H176.125V237.942C168.943 237.942 166.292 247.347 165.865 252.05Z" fill="#E3C795"/>
<rect width="3.64307" height="3.64307" rx="1.21436" transform="matrix(-1 0 0 1 183.286 247.577)" fill="#FDE8D7"/>
<rect width="3.64307" height="3.64307" rx="1.21436" transform="matrix(-1 0 0 1 178.429 247.577)" fill="#FDE8D7"/>
<rect width="3.64307" height="3.64307" rx="1.21436" transform="matrix(-1 0 0 1 172.358 247.577)" fill="#FDE8D7"/>
<path fill-rule="evenodd" clip-rule="evenodd" d="M124.07 172.881C120.91 192.546 115.944 233.671 121.361 240.853C126.778 248.035 132.647 251.54 134.905 252.395L148.448 252.395H161.991C164.249 251.54 170.117 248.035 175.535 240.853C180.952 233.671 175.986 192.546 172.826 172.881H148.448V172.881H124.07Z" fill="#E3C795"/>
<path fill-rule="evenodd" clip-rule="evenodd" d="M124.07 172.881C120.91 192.546 115.944 233.671 121.361 240.853C126.778 248.035 132.647 251.54 134.905 252.395L148.448 252.395H161.991C164.249 251.54 170.117 248.035 175.535 240.853C180.952 233.671 175.986 192.546 172.826 172.881H148.448V172.881H124.07Z" fill="url(#paint1_linear_271_1819)" fill-opacity="0.2"/>
<g filter="url(#filter4_i_271_1819)">
<path fill-rule="evenodd" clip-rule="evenodd" d="M126.082 175.446C123.263 193.842 118.833 232.314 123.665 239.033C128.498 245.751 133.733 249.031 135.746 249.83L149.73 249.83H161.811C163.824 249.031 169.059 245.751 173.892 239.033C178.724 232.314 174.294 193.842 171.475 175.446H149.73V175.446H126.082Z" fill="#FDE8D7"/>
</g>
<g filter="url(#filter5_i_271_1819)">
<path d="M116.811 201.25C114.269 191.085 118.928 176.896 121.575 171.073L129.517 172.661C125.811 179.543 121.575 197.279 127.928 199.662C140.635 204.426 148.576 191.72 146.988 196.485C143.772 206.133 119.987 213.956 116.811 201.25Z" fill="#E3C795"/>
</g>
<path d="M127.612 176.537C127.127 176.537 122.148 176.132 119.719 175.929L120.326 174.108L128.219 175.322C128.219 175.727 128.098 176.537 127.612 176.537Z" fill="#D8B881"/>
<g filter="url(#filter6_i_271_1819)">
<path d="M176.813 201.25C179.355 191.085 174.696 176.896 172.048 171.073L164.107 172.661C167.813 179.543 172.048 197.279 165.695 199.662C152.989 204.426 145.048 191.72 146.636 196.485C149.852 206.133 173.637 213.956 176.813 201.25Z" fill="#E3C795"/>
</g>
<path d="M165.865 176.537C165.865 176.537 171.329 176.132 173.758 175.929L172.544 174.108L165.258 174.715C165.258 175.12 165.865 176.537 165.865 176.537Z" fill="#D8B881"/>
<path d="M107.753 115.481C109.094 105.429 116.837 97.4284 126.841 95.7612L144.688 92.7866C147.201 92.3678 149.766 92.3678 152.279 92.7866L169.54 95.6635C179.821 97.377 187.678 105.767 188.715 116.137L192.115 150.134C193.474 163.724 182.802 175.516 169.145 175.516H126.116C112.154 175.516 101.388 163.219 103.233 149.38L107.753 115.481Z" fill="#FDE8D7"/>
<path fill-rule="evenodd" clip-rule="evenodd" d="M126.298 95.7388C116.284 97.3742 108.512 105.356 107.145 115.41L102.64 148.518C102.017 153.095 102.775 157.506 104.573 161.361C104.651 160.285 104.867 159.195 105.236 158.111C106.555 154.225 109.642 151.197 113.552 149.953L140.608 141.344C145.038 139.934 149.789 139.895 154.241 141.231L182.332 149.658C186.813 151.002 190.216 154.639 191.278 159.166C192.339 156.099 192.768 152.751 192.415 149.287L189.026 116.081C187.967 105.701 180.078 97.3227 169.781 95.641L152.06 92.7467C149.595 92.3442 147.082 92.3442 144.618 92.7467L126.298 95.7388Z" fill="#E3C795"/>
<path d="M156.393 139.499C156.393 141.511 152.804 144.356 148.378 144.356C143.951 144.356 140.363 141.511 140.363 139.499C140.363 137.487 143.951 135.856 148.378 135.856C152.804 135.856 156.393 137.487 156.393 139.499Z" fill="#4E4949"/>
<path d="M156.15 151.643C156.15 156.338 152.344 160.143 147.649 160.143C142.955 160.143 139.149 156.338 139.149 151.643" stroke="#4E4949" stroke-width="1.7001" stroke-linecap="round"/>
<ellipse cx="124.576" cy="142.535" rx="4.85742" ry="3.03589" transform="rotate(-16.1742 124.576 142.535)" fill="#E39D9D"/>
<ellipse cx="4.85742" cy="3.03589" rx="4.85742" ry="3.03589" transform="matrix(-0.960419 -0.278559 -0.278559 0.960419 178.1 140.991)" fill="#E39D9D"/>
<circle cx="124.842" cy="125.911" r="8.76711" transform="rotate(-19.549 124.842 125.911)" fill="white"/>
<path fill-rule="evenodd" clip-rule="evenodd" d="M127.808 132.301C131.116 131.126 132.846 127.492 131.671 124.184C130.496 120.876 126.863 119.147 123.554 120.321C122.61 120.657 121.794 121.193 121.137 121.865C121.956 121.946 122.695 122.486 122.989 123.313C123.394 124.454 122.798 125.707 121.657 126.112C120.83 126.406 119.944 126.173 119.365 125.588C119.257 126.522 119.356 127.493 119.692 128.438C120.866 131.746 124.5 133.476 127.808 132.301Z" fill="#393939"/>
<circle cx="169.536" cy="125.911" r="8.76711" transform="rotate(-19.549 169.536 125.911)" fill="white"/>
<path fill-rule="evenodd" clip-rule="evenodd" d="M170.272 132.301C173.58 131.126 175.309 127.492 174.135 124.184C172.96 120.876 169.326 119.147 166.018 120.321C165.073 120.657 164.257 121.193 163.601 121.865C164.42 121.946 165.159 122.486 165.453 123.313C165.858 124.454 165.261 125.707 164.121 126.112C163.294 126.406 162.408 126.173 161.829 125.588C161.721 126.522 161.82 127.493 162.155 128.438C163.33 131.746 166.964 133.476 170.272 132.301Z" fill="#393939"/>
<path d="M114.762 116.282C116.544 113.901 121.537 110.21 127.25 114.487" stroke="#AE8D52" stroke-width="1.11514" stroke-linecap="round"/>
<path d="M181.892 116.282C180.11 113.901 175.117 110.21 169.404 114.487" stroke="#AE8D52" stroke-width="1.11514" stroke-linecap="round"/>
</g>
</g>
<defs>
<filter id="filter0_d_271_1819" x="0" y="-1.50488" width="293" height="286.294" filterUnits="userSpaceOnUse" color-interpolation-filters="sRGB">
<feFlood flood-opacity="0" result="BackgroundImageFix"/>
<feColorMatrix in="SourceAlpha" type="matrix" values="0 0 0 0 0 0 0 0 0 0 0 0 0 0 0 0 0 0 127 0" result="hardAlpha"/>
<feOffset dy="2"/>
<feGaussianBlur stdDeviation="2"/>
<feComposite in2="hardAlpha" operator="out"/>
<feColorMatrix type="matrix" values="0 0 0 0 0 0 0 0 0 0 0 0 0 0 0 0 0 0 0.25 0"/>
<feBlend mode="normal" in2="BackgroundImageFix" result="effect1_dropShadow_271_1819"/>
<feBlend mode="normal" in="SourceGraphic" in2="effect1_dropShadow_271_1819" result="shape"/>
</filter>
<filter id="filter1_d_271_1819" x="100.295" y="80.9121" width="93.6456" height="79.5001" filterUnits="userSpaceOnUse" color-interpolation-filters="sRGB">
<feFlood flood-opacity="0" result="BackgroundImageFix"/>
<feColorMatrix in="SourceAlpha" type="matrix" values="0 0 0 0 0 0 0 0 0 0 0 0 0 0 0 0 0 0 127 0" result="hardAlpha"/>
<feOffset dx="1.70819" dy="1.36655"/>
<feComposite in2="hardAlpha" operator="out"/>
<feColorMatrix type="matrix" values="0 0 0 0 0 0 0 0 0 0 0 0 0 0 0 0 0 0 0.25 0"/>
<feBlend mode="normal" in2="BackgroundImageFix" result="effect1_dropShadow_271_1819"/>
<feBlend mode="normal" in="SourceGraphic" in2="effect1_dropShadow_271_1819" result="shape"/>
</filter>
<filter id="filter2_i_271_1819" x="186.958" y="101.132" width="56.4298" height="56.4299" filterUnits="userSpaceOnUse" color-interpolation-filters="sRGB">
<feFlood flood-opacity="0" result="BackgroundImageFix"/>
<feBlend mode="normal" in="SourceGraphic" in2="BackgroundImageFix" result="shape"/>
<feColorMatrix in="SourceAlpha" type="matrix" values="0 0 0 0 0 0 0 0 0 0 0 0 0 0 0 0 0 0 127 0" result="hardAlpha"/>
<feOffset dy="5.12998"/>
<feComposite in2="hardAlpha" operator="arithmetic" k2="-1" k3="1"/>
<feColorMatrix type="matrix" values="0 0 0 0 0.890196 0 0 0 0 0.596078 0 0 0 0 0.596078 0 0 0 1 0"/>
<feBlend mode="normal" in2="shape" result="effect1_innerShadow_271_1819"/>
</filter>
<filter id="filter3_i_271_1819" x="60.1116" y="91.1426" width="52.4615" height="59.144" filterUnits="userSpaceOnUse" color-interpolation-filters="sRGB">
<feFlood flood-opacity="0" result="BackgroundImageFix"/>
<feBlend mode="normal" in="SourceGraphic" in2="BackgroundImageFix" result="shape"/>
<feColorMatrix in="SourceAlpha" type="matrix" values="0 0 0 0 0 0 0 0 0 0 0 0 0 0 0 0 0 0 127 0" result="hardAlpha"/>
<feOffset dx="-2.56499" dy="5.12998"/>
<feComposite in2="hardAlpha" operator="arithmetic" k2="-1" k3="1"/>
<feColorMatrix type="matrix" values="0 0 0 0 0.891667 0 0 0 0 0.594444 0 0 0 0 0.594444 0 0 0 1 0"/>
<feBlend mode="normal" in2="shape" result="effect1_innerShadow_271_1819"/>
</filter>
<filter id="filter4_i_271_1819" x="121.515" y="175.446" width="54.5263" height="74.3848" filterUnits="userSpaceOnUse" color-interpolation-filters="sRGB">
<feFlood flood-opacity="0" result="BackgroundImageFix"/>
<feBlend mode="normal" in="SourceGraphic" in2="BackgroundImageFix" result="shape"/>
<feColorMatrix in="SourceAlpha" type="matrix" values="0 0 0 0 0 0 0 0 0 0 0 0 0 0 0 0 0 0 127 0" result="hardAlpha"/>
<feOffset dy="1.21436"/>
<feComposite in2="hardAlpha" operator="arithmetic" k2="-1" k3="1"/>
<feColorMatrix type="matrix" values="0 0 0 0 0.970833 0 0 0 0 0.838941 0 0 0 0 0.73217 0 0 0 1 0"/>
<feBlend mode="normal" in2="shape" result="effect1_innerShadow_271_1819"/>
</filter>
<filter id="filter5_i_271_1819" x="116.076" y="171.073" width="31.1131" height="36.7976" filterUnits="userSpaceOnUse" color-interpolation-filters="sRGB">
<feFlood flood-opacity="0" result="BackgroundImageFix"/>
<feBlend mode="normal" in="SourceGraphic" in2="BackgroundImageFix" result="shape"/>
<feColorMatrix in="SourceAlpha" type="matrix" values="0 0 0 0 0 0 0 0 0 0 0 0 0 0 0 0 0 0 127 0" result="hardAlpha"/>
<feOffset dy="1.21436"/>
<feComposite in2="hardAlpha" operator="arithmetic" k2="-1" k3="1"/>
<feColorMatrix type="matrix" values="0 0 0 0 0.845833 0 0 0 0 0.723115 0 0 0 0 0.503976 0 0 0 1 0"/>
<feBlend mode="normal" in2="shape" result="effect1_innerShadow_271_1819"/>
</filter>
<filter id="filter6_i_271_1819" x="146.435" y="171.073" width="31.1131" height="36.7976" filterUnits="userSpaceOnUse" color-interpolation-filters="sRGB">
<feFlood flood-opacity="0" result="BackgroundImageFix"/>
<feBlend mode="normal" in="SourceGraphic" in2="BackgroundImageFix" result="shape"/>
<feColorMatrix in="SourceAlpha" type="matrix" values="0 0 0 0 0 0 0 0 0 0 0 0 0 0 0 0 0 0 127 0" result="hardAlpha"/>
<feOffset dy="1.21436"/>
<feComposite in2="hardAlpha" operator="arithmetic" k2="-1" k3="1"/>
<feColorMatrix type="matrix" values="0 0 0 0 0.845833 0 0 0 0 0.723115 0 0 0 0 0.503976 0 0 0 1 0"/>
<feBlend mode="normal" in2="shape" result="effect1_innerShadow_271_1819"/>
</filter>
<linearGradient id="paint0_linear_271_1819" x1="153.252" y1="-279.505" x2="153.252" y2="227.332" gradientUnits="userSpaceOnUse">
<stop stop-color="#3F93B7"/>
<stop offset="1" stop-color="#1C5872"/>
</linearGradient>
<linearGradient id="paint1_linear_271_1819" x1="148.448" y1="172.881" x2="148.864" y2="252.434" gradientUnits="userSpaceOnUse">
<stop stop-color="#E3C795"/>
<stop offset="1" stop-color="#C2A674"/>
</linearGradient>
<clipPath id="clip0_271_1819">
<rect x="4" y="0.495117" width="285" height="278.294" rx="16" fill="white"/>
</clipPath>
</defs>
</svg>
